<?xml version="1.0" encoding="utf-8" standalone="no"?>
<!DOCTYPE svg PUBLIC "-//W3C//DTD SVG 1.1//EN"
  "http://www.w3.org/Graphics/SVG/1.1/DTD/svg11.dtd">
<!-- Created with matplotlib (https://matplotlib.org/) -->
<svg height="1080pt" version="1.1" viewBox="0 0 2880 1080" width="2880pt" xmlns="http://www.w3.org/2000/svg" xmlns:xlink="http://www.w3.org/1999/xlink">
 <metadata>
  <rdf:RDF xmlns:cc="http://creativecommons.org/ns#" xmlns:dc="http://purl.org/dc/elements/1.1/" xmlns:rdf="http://www.w3.org/1999/02/22-rdf-syntax-ns#">
   <cc:Work>
    <dc:type rdf:resource="http://purl.org/dc/dcmitype/StillImage"/>
    <dc:date>2020-09-12T17:08:25.296857</dc:date>
    <dc:format>image/svg+xml</dc:format>
    <dc:creator>
     <cc:Agent>
      <dc:title>Matplotlib v3.3.1, https://matplotlib.org/</dc:title>
     </cc:Agent>
    </dc:creator>
   </cc:Work>
  </rdf:RDF>
 </metadata>
 <defs>
  <style type="text/css">*{stroke-linecap:butt;stroke-linejoin:round;}</style>
 </defs>
 <g id="figure_1">
  <g id="patch_1">
   <path d="M 0 1080 
L 2880 1080 
L 2880 0 
L 0 0 
z
" style="fill:#ffffff;"/>
  </g>
  <g id="axes_1">
   <g id="patch_2">
    <path d="M 360 961.2 
L 2592 961.2 
L 2592 129.6 
L 360 129.6 
z
" style="fill:#ffffff;"/>
   </g>
   <g id="matplotlib.axis_1">
    <g id="xtick_1">
     <g id="line2d_1">
      <defs>
       <path d="M 0 0 
L 0 3.5 
" id="mfae99f4a1b" style="stroke:#000000;stroke-width:0.8;"/>
      </defs>
      <g>
       <use style="stroke:#000000;stroke-width:0.8;" x="461.454545" xlink:href="#mfae99f4a1b" y="961.2"/>
      </g>
     </g>
     <g id="text_1">
      <!-- 0 -->
      <g transform="translate(458.273295 975.798437)scale(0.1 -0.1)">
       <defs>
        <path d="M 31.78125 66.40625 
Q 24.171875 66.40625 20.328125 58.90625 
Q 16.5 51.421875 16.5 36.375 
Q 16.5 21.390625 20.328125 13.890625 
Q 24.171875 6.390625 31.78125 6.390625 
Q 39.453125 6.390625 43.28125 13.890625 
Q 47.125 21.390625 47.125 36.375 
Q 47.125 51.421875 43.28125 58.90625 
Q 39.453125 66.40625 31.78125 66.40625 
z
M 31.78125 74.21875 
Q 44.046875 74.21875 50.515625 64.515625 
Q 56.984375 54.828125 56.984375 36.375 
Q 56.984375 17.96875 50.515625 8.265625 
Q 44.046875 -1.421875 31.78125 -1.421875 
Q 19.53125 -1.421875 13.0625 8.265625 
Q 6.59375 17.96875 6.59375 36.375 
Q 6.59375 54.828125 13.0625 64.515625 
Q 19.53125 74.21875 31.78125 74.21875 
z
" id="DejaVuSans-48"/>
       </defs>
       <use xlink:href="#DejaVuSans-48"/>
      </g>
     </g>
    </g>
    <g id="xtick_2">
     <g id="line2d_2">
      <g>
       <use style="stroke:#000000;stroke-width:0.8;" x="786.97481" xlink:href="#mfae99f4a1b" y="961.2"/>
      </g>
     </g>
     <g id="text_2">
      <!-- 50 -->
      <g transform="translate(780.61231 975.798437)scale(0.1 -0.1)">
       <defs>
        <path d="M 10.796875 72.90625 
L 49.515625 72.90625 
L 49.515625 64.59375 
L 19.828125 64.59375 
L 19.828125 46.734375 
Q 21.96875 47.46875 24.109375 47.828125 
Q 26.265625 48.1875 28.421875 48.1875 
Q 40.625 48.1875 47.75 41.5 
Q 54.890625 34.8125 54.890625 23.390625 
Q 54.890625 11.625 47.5625 5.09375 
Q 40.234375 -1.421875 26.90625 -1.421875 
Q 22.3125 -1.421875 17.546875 -0.640625 
Q 12.796875 0.140625 7.71875 1.703125 
L 7.71875 11.625 
Q 12.109375 9.234375 16.796875 8.0625 
Q 21.484375 6.890625 26.703125 6.890625 
Q 35.15625 6.890625 40.078125 11.328125 
Q 45.015625 15.765625 45.015625 23.390625 
Q 45.015625 31 40.078125 35.4375 
Q 35.15625 39.890625 26.703125 39.890625 
Q 22.75 39.890625 18.8125 39.015625 
Q 14.890625 38.140625 10.796875 36.28125 
z
" id="DejaVuSans-53"/>
       </defs>
       <use xlink:href="#DejaVuSans-53"/>
       <use x="63.623047" xlink:href="#DejaVuSans-48"/>
      </g>
     </g>
    </g>
    <g id="xtick_3">
     <g id="line2d_3">
      <g>
       <use style="stroke:#000000;stroke-width:0.8;" x="1112.495074" xlink:href="#mfae99f4a1b" y="961.2"/>
      </g>
     </g>
     <g id="text_3">
      <!-- 100 -->
      <g transform="translate(1102.951324 975.798437)scale(0.1 -0.1)">
       <defs>
        <path d="M 12.40625 8.296875 
L 28.515625 8.296875 
L 28.515625 63.921875 
L 10.984375 60.40625 
L 10.984375 69.390625 
L 28.421875 72.90625 
L 38.28125 72.90625 
L 38.28125 8.296875 
L 54.390625 8.296875 
L 54.390625 0 
L 12.40625 0 
z
" id="DejaVuSans-49"/>
       </defs>
       <use xlink:href="#DejaVuSans-49"/>
       <use x="63.623047" xlink:href="#DejaVuSans-48"/>
       <use x="127.246094" xlink:href="#DejaVuSans-48"/>
      </g>
     </g>
    </g>
    <g id="xtick_4">
     <g id="line2d_4">
      <g>
       <use style="stroke:#000000;stroke-width:0.8;" x="1438.015339" xlink:href="#mfae99f4a1b" y="961.2"/>
      </g>
     </g>
     <g id="text_4">
      <!-- 150 -->
      <g transform="translate(1428.471589 975.798437)scale(0.1 -0.1)">
       <use xlink:href="#DejaVuSans-49"/>
       <use x="63.623047" xlink:href="#DejaVuSans-53"/>
       <use x="127.246094" xlink:href="#DejaVuSans-48"/>
      </g>
     </g>
    </g>
    <g id="xtick_5">
     <g id="line2d_5">
      <g>
       <use style="stroke:#000000;stroke-width:0.8;" x="1763.535603" xlink:href="#mfae99f4a1b" y="961.2"/>
      </g>
     </g>
     <g id="text_5">
      <!-- 200 -->
      <g transform="translate(1753.991853 975.798437)scale(0.1 -0.1)">
       <defs>
        <path d="M 19.1875 8.296875 
L 53.609375 8.296875 
L 53.609375 0 
L 7.328125 0 
L 7.328125 8.296875 
Q 12.9375 14.109375 22.625 23.890625 
Q 32.328125 33.6875 34.8125 36.53125 
Q 39.546875 41.84375 41.421875 45.53125 
Q 43.3125 49.21875 43.3125 52.78125 
Q 43.3125 58.59375 39.234375 62.25 
Q 35.15625 65.921875 28.609375 65.921875 
Q 23.96875 65.921875 18.8125 64.3125 
Q 13.671875 62.703125 7.8125 59.421875 
L 7.8125 69.390625 
Q 13.765625 71.78125 18.9375 73 
Q 24.125 74.21875 28.421875 74.21875 
Q 39.75 74.21875 46.484375 68.546875 
Q 53.21875 62.890625 53.21875 53.421875 
Q 53.21875 48.921875 51.53125 44.890625 
Q 49.859375 40.875 45.40625 35.40625 
Q 44.1875 33.984375 37.640625 27.21875 
Q 31.109375 20.453125 19.1875 8.296875 
z
" id="DejaVuSans-50"/>
       </defs>
       <use xlink:href="#DejaVuSans-50"/>
       <use x="63.623047" xlink:href="#DejaVuSans-48"/>
       <use x="127.246094" xlink:href="#DejaVuSans-48"/>
      </g>
     </g>
    </g>
    <g id="xtick_6">
     <g id="line2d_6">
      <g>
       <use style="stroke:#000000;stroke-width:0.8;" x="2089.055867" xlink:href="#mfae99f4a1b" y="961.2"/>
      </g>
     </g>
     <g id="text_6">
      <!-- 250 -->
      <g transform="translate(2079.512117 975.798437)scale(0.1 -0.1)">
       <use xlink:href="#DejaVuSans-50"/>
       <use x="63.623047" xlink:href="#DejaVuSans-53"/>
       <use x="127.246094" xlink:href="#DejaVuSans-48"/>
      </g>
     </g>
    </g>
    <g id="xtick_7">
     <g id="line2d_7">
      <g>
       <use style="stroke:#000000;stroke-width:0.8;" x="2414.576132" xlink:href="#mfae99f4a1b" y="961.2"/>
      </g>
     </g>
     <g id="text_7">
      <!-- 300 -->
      <g transform="translate(2405.032382 975.798437)scale(0.1 -0.1)">
       <defs>
        <path d="M 40.578125 39.3125 
Q 47.65625 37.796875 51.625 33 
Q 55.609375 28.21875 55.609375 21.1875 
Q 55.609375 10.40625 48.1875 4.484375 
Q 40.765625 -1.421875 27.09375 -1.421875 
Q 22.515625 -1.421875 17.65625 -0.515625 
Q 12.796875 0.390625 7.625 2.203125 
L 7.625 11.71875 
Q 11.71875 9.328125 16.59375 8.109375 
Q 21.484375 6.890625 26.8125 6.890625 
Q 36.078125 6.890625 40.9375 10.546875 
Q 45.796875 14.203125 45.796875 21.1875 
Q 45.796875 27.640625 41.28125 31.265625 
Q 36.765625 34.90625 28.71875 34.90625 
L 20.21875 34.90625 
L 20.21875 43.015625 
L 29.109375 43.015625 
Q 36.375 43.015625 40.234375 45.921875 
Q 44.09375 48.828125 44.09375 54.296875 
Q 44.09375 59.90625 40.109375 62.90625 
Q 36.140625 65.921875 28.71875 65.921875 
Q 24.65625 65.921875 20.015625 65.03125 
Q 15.375 64.15625 9.8125 62.3125 
L 9.8125 71.09375 
Q 15.4375 72.65625 20.34375 73.4375 
Q 25.25 74.21875 29.59375 74.21875 
Q 40.828125 74.21875 47.359375 69.109375 
Q 53.90625 64.015625 53.90625 55.328125 
Q 53.90625 49.265625 50.4375 45.09375 
Q 46.96875 40.921875 40.578125 39.3125 
z
" id="DejaVuSans-51"/>
       </defs>
       <use xlink:href="#DejaVuSans-51"/>
       <use x="63.623047" xlink:href="#DejaVuSans-48"/>
       <use x="127.246094" xlink:href="#DejaVuSans-48"/>
      </g>
     </g>
    </g>
    <g id="text_8">
     <!-- Time (in Seconds) -->
     <g transform="translate(1431.121875 989.476562)scale(0.1 -0.1)">
      <defs>
       <path d="M -0.296875 72.90625 
L 61.375 72.90625 
L 61.375 64.59375 
L 35.5 64.59375 
L 35.5 0 
L 25.59375 0 
L 25.59375 64.59375 
L -0.296875 64.59375 
z
" id="DejaVuSans-84"/>
       <path d="M 9.421875 54.6875 
L 18.40625 54.6875 
L 18.40625 0 
L 9.421875 0 
z
M 9.421875 75.984375 
L 18.40625 75.984375 
L 18.40625 64.59375 
L 9.421875 64.59375 
z
" id="DejaVuSans-105"/>
       <path d="M 52 44.1875 
Q 55.375 50.25 60.0625 53.125 
Q 64.75 56 71.09375 56 
Q 79.640625 56 84.28125 50.015625 
Q 88.921875 44.046875 88.921875 33.015625 
L 88.921875 0 
L 79.890625 0 
L 79.890625 32.71875 
Q 79.890625 40.578125 77.09375 44.375 
Q 74.3125 48.1875 68.609375 48.1875 
Q 61.625 48.1875 57.5625 43.546875 
Q 53.515625 38.921875 53.515625 30.90625 
L 53.515625 0 
L 44.484375 0 
L 44.484375 32.71875 
Q 44.484375 40.625 41.703125 44.40625 
Q 38.921875 48.1875 33.109375 48.1875 
Q 26.21875 48.1875 22.15625 43.53125 
Q 18.109375 38.875 18.109375 30.90625 
L 18.109375 0 
L 9.078125 0 
L 9.078125 54.6875 
L 18.109375 54.6875 
L 18.109375 46.1875 
Q 21.1875 51.21875 25.484375 53.609375 
Q 29.78125 56 35.6875 56 
Q 41.65625 56 45.828125 52.96875 
Q 50 49.953125 52 44.1875 
z
" id="DejaVuSans-109"/>
       <path d="M 56.203125 29.59375 
L 56.203125 25.203125 
L 14.890625 25.203125 
Q 15.484375 15.921875 20.484375 11.0625 
Q 25.484375 6.203125 34.421875 6.203125 
Q 39.59375 6.203125 44.453125 7.46875 
Q 49.3125 8.734375 54.109375 11.28125 
L 54.109375 2.78125 
Q 49.265625 0.734375 44.1875 -0.34375 
Q 39.109375 -1.421875 33.890625 -1.421875 
Q 20.796875 -1.421875 13.15625 6.1875 
Q 5.515625 13.8125 5.515625 26.8125 
Q 5.515625 40.234375 12.765625 48.109375 
Q 20.015625 56 32.328125 56 
Q 43.359375 56 49.78125 48.890625 
Q 56.203125 41.796875 56.203125 29.59375 
z
M 47.21875 32.234375 
Q 47.125 39.59375 43.09375 43.984375 
Q 39.0625 48.390625 32.421875 48.390625 
Q 24.90625 48.390625 20.390625 44.140625 
Q 15.875 39.890625 15.1875 32.171875 
z
" id="DejaVuSans-101"/>
       <path id="DejaVuSans-32"/>
       <path d="M 31 75.875 
Q 24.46875 64.65625 21.28125 53.65625 
Q 18.109375 42.671875 18.109375 31.390625 
Q 18.109375 20.125 21.3125 9.0625 
Q 24.515625 -2 31 -13.1875 
L 23.1875 -13.1875 
Q 15.875 -1.703125 12.234375 9.375 
Q 8.59375 20.453125 8.59375 31.390625 
Q 8.59375 42.28125 12.203125 53.3125 
Q 15.828125 64.359375 23.1875 75.875 
z
" id="DejaVuSans-40"/>
       <path d="M 54.890625 33.015625 
L 54.890625 0 
L 45.90625 0 
L 45.90625 32.71875 
Q 45.90625 40.484375 42.875 44.328125 
Q 39.84375 48.1875 33.796875 48.1875 
Q 26.515625 48.1875 22.3125 43.546875 
Q 18.109375 38.921875 18.109375 30.90625 
L 18.109375 0 
L 9.078125 0 
L 9.078125 54.6875 
L 18.109375 54.6875 
L 18.109375 46.1875 
Q 21.34375 51.125 25.703125 53.5625 
Q 30.078125 56 35.796875 56 
Q 45.21875 56 50.046875 50.171875 
Q 54.890625 44.34375 54.890625 33.015625 
z
" id="DejaVuSans-110"/>
       <path d="M 53.515625 70.515625 
L 53.515625 60.890625 
Q 47.90625 63.578125 42.921875 64.890625 
Q 37.9375 66.21875 33.296875 66.21875 
Q 25.25 66.21875 20.875 63.09375 
Q 16.5 59.96875 16.5 54.203125 
Q 16.5 49.359375 19.40625 46.890625 
Q 22.3125 44.4375 30.421875 42.921875 
L 36.375 41.703125 
Q 47.40625 39.59375 52.65625 34.296875 
Q 57.90625 29 57.90625 20.125 
Q 57.90625 9.515625 50.796875 4.046875 
Q 43.703125 -1.421875 29.984375 -1.421875 
Q 24.8125 -1.421875 18.96875 -0.25 
Q 13.140625 0.921875 6.890625 3.21875 
L 6.890625 13.375 
Q 12.890625 10.015625 18.65625 8.296875 
Q 24.421875 6.59375 29.984375 6.59375 
Q 38.421875 6.59375 43.015625 9.90625 
Q 47.609375 13.234375 47.609375 19.390625 
Q 47.609375 24.75 44.3125 27.78125 
Q 41.015625 30.8125 33.5 32.328125 
L 27.484375 33.5 
Q 16.453125 35.6875 11.515625 40.375 
Q 6.59375 45.0625 6.59375 53.421875 
Q 6.59375 63.09375 13.40625 68.65625 
Q 20.21875 74.21875 32.171875 74.21875 
Q 37.3125 74.21875 42.625 73.28125 
Q 47.953125 72.359375 53.515625 70.515625 
z
" id="DejaVuSans-83"/>
       <path d="M 48.78125 52.59375 
L 48.78125 44.1875 
Q 44.96875 46.296875 41.140625 47.34375 
Q 37.3125 48.390625 33.40625 48.390625 
Q 24.65625 48.390625 19.8125 42.84375 
Q 14.984375 37.3125 14.984375 27.296875 
Q 14.984375 17.28125 19.8125 11.734375 
Q 24.65625 6.203125 33.40625 6.203125 
Q 37.3125 6.203125 41.140625 7.25 
Q 44.96875 8.296875 48.78125 10.40625 
L 48.78125 2.09375 
Q 45.015625 0.34375 40.984375 -0.53125 
Q 36.96875 -1.421875 32.421875 -1.421875 
Q 20.0625 -1.421875 12.78125 6.34375 
Q 5.515625 14.109375 5.515625 27.296875 
Q 5.515625 40.671875 12.859375 48.328125 
Q 20.21875 56 33.015625 56 
Q 37.15625 56 41.109375 55.140625 
Q 45.0625 54.296875 48.78125 52.59375 
z
" id="DejaVuSans-99"/>
       <path d="M 30.609375 48.390625 
Q 23.390625 48.390625 19.1875 42.75 
Q 14.984375 37.109375 14.984375 27.296875 
Q 14.984375 17.484375 19.15625 11.84375 
Q 23.34375 6.203125 30.609375 6.203125 
Q 37.796875 6.203125 41.984375 11.859375 
Q 46.1875 17.53125 46.1875 27.296875 
Q 46.1875 37.015625 41.984375 42.703125 
Q 37.796875 48.390625 30.609375 48.390625 
z
M 30.609375 56 
Q 42.328125 56 49.015625 48.375 
Q 55.71875 40.765625 55.71875 27.296875 
Q 55.71875 13.875 49.015625 6.21875 
Q 42.328125 -1.421875 30.609375 -1.421875 
Q 18.84375 -1.421875 12.171875 6.21875 
Q 5.515625 13.875 5.515625 27.296875 
Q 5.515625 40.765625 12.171875 48.375 
Q 18.84375 56 30.609375 56 
z
" id="DejaVuSans-111"/>
       <path d="M 45.40625 46.390625 
L 45.40625 75.984375 
L 54.390625 75.984375 
L 54.390625 0 
L 45.40625 0 
L 45.40625 8.203125 
Q 42.578125 3.328125 38.25 0.953125 
Q 33.9375 -1.421875 27.875 -1.421875 
Q 17.96875 -1.421875 11.734375 6.484375 
Q 5.515625 14.40625 5.515625 27.296875 
Q 5.515625 40.1875 11.734375 48.09375 
Q 17.96875 56 27.875 56 
Q 33.9375 56 38.25 53.625 
Q 42.578125 51.265625 45.40625 46.390625 
z
M 14.796875 27.296875 
Q 14.796875 17.390625 18.875 11.75 
Q 22.953125 6.109375 30.078125 6.109375 
Q 37.203125 6.109375 41.296875 11.75 
Q 45.40625 17.390625 45.40625 27.296875 
Q 45.40625 37.203125 41.296875 42.84375 
Q 37.203125 48.484375 30.078125 48.484375 
Q 22.953125 48.484375 18.875 42.84375 
Q 14.796875 37.203125 14.796875 27.296875 
z
" id="DejaVuSans-100"/>
       <path d="M 44.28125 53.078125 
L 44.28125 44.578125 
Q 40.484375 46.53125 36.375 47.5 
Q 32.28125 48.484375 27.875 48.484375 
Q 21.1875 48.484375 17.84375 46.4375 
Q 14.5 44.390625 14.5 40.28125 
Q 14.5 37.15625 16.890625 35.375 
Q 19.28125 33.59375 26.515625 31.984375 
L 29.59375 31.296875 
Q 39.15625 29.25 43.1875 25.515625 
Q 47.21875 21.78125 47.21875 15.09375 
Q 47.21875 7.46875 41.1875 3.015625 
Q 35.15625 -1.421875 24.609375 -1.421875 
Q 20.21875 -1.421875 15.453125 -0.5625 
Q 10.6875 0.296875 5.421875 2 
L 5.421875 11.28125 
Q 10.40625 8.6875 15.234375 7.390625 
Q 20.0625 6.109375 24.8125 6.109375 
Q 31.15625 6.109375 34.5625 8.28125 
Q 37.984375 10.453125 37.984375 14.40625 
Q 37.984375 18.0625 35.515625 20.015625 
Q 33.0625 21.96875 24.703125 23.78125 
L 21.578125 24.515625 
Q 13.234375 26.265625 9.515625 29.90625 
Q 5.8125 33.546875 5.8125 39.890625 
Q 5.8125 47.609375 11.28125 51.796875 
Q 16.75 56 26.8125 56 
Q 31.78125 56 36.171875 55.265625 
Q 40.578125 54.546875 44.28125 53.078125 
z
" id="DejaVuSans-115"/>
       <path d="M 8.015625 75.875 
L 15.828125 75.875 
Q 23.140625 64.359375 26.78125 53.3125 
Q 30.421875 42.28125 30.421875 31.390625 
Q 30.421875 20.453125 26.78125 9.375 
Q 23.140625 -1.703125 15.828125 -13.1875 
L 8.015625 -13.1875 
Q 14.5 -2 17.703125 9.0625 
Q 20.90625 20.125 20.90625 31.390625 
Q 20.90625 42.671875 17.703125 53.65625 
Q 14.5 64.65625 8.015625 75.875 
z
" id="DejaVuSans-41"/>
      </defs>
      <use xlink:href="#DejaVuSans-84"/>
      <use x="57.958984" xlink:href="#DejaVuSans-105"/>
      <use x="85.742188" xlink:href="#DejaVuSans-109"/>
      <use x="183.154297" xlink:href="#DejaVuSans-101"/>
      <use x="244.677734" xlink:href="#DejaVuSans-32"/>
      <use x="276.464844" xlink:href="#DejaVuSans-40"/>
      <use x="315.478516" xlink:href="#DejaVuSans-105"/>
      <use x="343.261719" xlink:href="#DejaVuSans-110"/>
      <use x="406.640625" xlink:href="#DejaVuSans-32"/>
      <use x="438.427734" xlink:href="#DejaVuSans-83"/>
      <use x="501.904297" xlink:href="#DejaVuSans-101"/>
      <use x="563.427734" xlink:href="#DejaVuSans-99"/>
      <use x="618.408203" xlink:href="#DejaVuSans-111"/>
      <use x="679.589844" xlink:href="#DejaVuSans-110"/>
      <use x="742.96875" xlink:href="#DejaVuSans-100"/>
      <use x="806.445312" xlink:href="#DejaVuSans-115"/>
      <use x="858.544922" xlink:href="#DejaVuSans-41"/>
     </g>
    </g>
   </g>
   <g id="matplotlib.axis_2">
    <g id="ytick_1">
     <g id="line2d_8">
      <defs>
       <path d="M 0 0 
L -3.5 0 
" id="mca53f495c4" style="stroke:#000000;stroke-width:0.8;"/>
      </defs>
      <g>
       <use style="stroke:#000000;stroke-width:0.8;" x="360" xlink:href="#mca53f495c4" y="938.676726"/>
      </g>
     </g>
     <g id="text_9">
      <!-- 1000 -->
      <g transform="translate(327.55 942.475945)scale(0.1 -0.1)">
       <use xlink:href="#DejaVuSans-49"/>
       <use x="63.623047" xlink:href="#DejaVuSans-48"/>
       <use x="127.246094" xlink:href="#DejaVuSans-48"/>
       <use x="190.869141" xlink:href="#DejaVuSans-48"/>
      </g>
     </g>
    </g>
    <g id="ytick_2">
     <g id="line2d_9">
      <g>
       <use style="stroke:#000000;stroke-width:0.8;" x="360" xlink:href="#mca53f495c4" y="832.711976"/>
      </g>
     </g>
     <g id="text_10">
      <!-- 1500 -->
      <g transform="translate(327.55 836.511195)scale(0.1 -0.1)">
       <use xlink:href="#DejaVuSans-49"/>
       <use x="63.623047" xlink:href="#DejaVuSans-53"/>
       <use x="127.246094" xlink:href="#DejaVuSans-48"/>
       <use x="190.869141" xlink:href="#DejaVuSans-48"/>
      </g>
     </g>
    </g>
    <g id="ytick_3">
     <g id="line2d_10">
      <g>
       <use style="stroke:#000000;stroke-width:0.8;" x="360" xlink:href="#mca53f495c4" y="726.747226"/>
      </g>
     </g>
     <g id="text_11">
      <!-- 2000 -->
      <g transform="translate(327.55 730.546444)scale(0.1 -0.1)">
       <use xlink:href="#DejaVuSans-50"/>
       <use x="63.623047" xlink:href="#DejaVuSans-48"/>
       <use x="127.246094" xlink:href="#DejaVuSans-48"/>
       <use x="190.869141" xlink:href="#DejaVuSans-48"/>
      </g>
     </g>
    </g>
    <g id="ytick_4">
     <g id="line2d_11">
      <g>
       <use style="stroke:#000000;stroke-width:0.8;" x="360" xlink:href="#mca53f495c4" y="620.782476"/>
      </g>
     </g>
     <g id="text_12">
      <!-- 2500 -->
      <g transform="translate(327.55 624.581694)scale(0.1 -0.1)">
       <use xlink:href="#DejaVuSans-50"/>
       <use x="63.623047" xlink:href="#DejaVuSans-53"/>
       <use x="127.246094" xlink:href="#DejaVuSans-48"/>
       <use x="190.869141" xlink:href="#DejaVuSans-48"/>
      </g>
     </g>
    </g>
    <g id="ytick_5">
     <g id="line2d_12">
      <g>
       <use style="stroke:#000000;stroke-width:0.8;" x="360" xlink:href="#mca53f495c4" y="514.817725"/>
      </g>
     </g>
     <g id="text_13">
      <!-- 3000 -->
      <g transform="translate(327.55 518.616944)scale(0.1 -0.1)">
       <use xlink:href="#DejaVuSans-51"/>
       <use x="63.623047" xlink:href="#DejaVuSans-48"/>
       <use x="127.246094" xlink:href="#DejaVuSans-48"/>
       <use x="190.869141" xlink:href="#DejaVuSans-48"/>
      </g>
     </g>
    </g>
    <g id="ytick_6">
     <g id="line2d_13">
      <g>
       <use style="stroke:#000000;stroke-width:0.8;" x="360" xlink:href="#mca53f495c4" y="408.852975"/>
      </g>
     </g>
     <g id="text_14">
      <!-- 3500 -->
      <g transform="translate(327.55 412.652194)scale(0.1 -0.1)">
       <use xlink:href="#DejaVuSans-51"/>
       <use x="63.623047" xlink:href="#DejaVuSans-53"/>
       <use x="127.246094" xlink:href="#DejaVuSans-48"/>
       <use x="190.869141" xlink:href="#DejaVuSans-48"/>
      </g>
     </g>
    </g>
    <g id="ytick_7">
     <g id="line2d_14">
      <g>
       <use style="stroke:#000000;stroke-width:0.8;" x="360" xlink:href="#mca53f495c4" y="302.888225"/>
      </g>
     </g>
     <g id="text_15">
      <!-- 4000 -->
      <g transform="translate(327.55 306.687444)scale(0.1 -0.1)">
       <defs>
        <path d="M 37.796875 64.3125 
L 12.890625 25.390625 
L 37.796875 25.390625 
z
M 35.203125 72.90625 
L 47.609375 72.90625 
L 47.609375 25.390625 
L 58.015625 25.390625 
L 58.015625 17.1875 
L 47.609375 17.1875 
L 47.609375 0 
L 37.796875 0 
L 37.796875 17.1875 
L 4.890625 17.1875 
L 4.890625 26.703125 
z
" id="DejaVuSans-52"/>
       </defs>
       <use xlink:href="#DejaVuSans-52"/>
       <use x="63.623047" xlink:href="#DejaVuSans-48"/>
       <use x="127.246094" xlink:href="#DejaVuSans-48"/>
       <use x="190.869141" xlink:href="#DejaVuSans-48"/>
      </g>
     </g>
    </g>
    <g id="ytick_8">
     <g id="line2d_15">
      <g>
       <use style="stroke:#000000;stroke-width:0.8;" x="360" xlink:href="#mca53f495c4" y="196.923475"/>
      </g>
     </g>
     <g id="text_16">
      <!-- 4500 -->
      <g transform="translate(327.55 200.722694)scale(0.1 -0.1)">
       <use xlink:href="#DejaVuSans-52"/>
       <use x="63.623047" xlink:href="#DejaVuSans-53"/>
       <use x="127.246094" xlink:href="#DejaVuSans-48"/>
       <use x="190.869141" xlink:href="#DejaVuSans-48"/>
      </g>
     </g>
    </g>
    <g id="text_17">
     <!-- Memory (in MegaBytes) -->
     <g transform="translate(321.470313 605.032812)rotate(-90)scale(0.1 -0.1)">
      <defs>
       <path d="M 9.8125 72.90625 
L 24.515625 72.90625 
L 43.109375 23.296875 
L 61.8125 72.90625 
L 76.515625 72.90625 
L 76.515625 0 
L 66.890625 0 
L 66.890625 64.015625 
L 48.09375 14.015625 
L 38.1875 14.015625 
L 19.390625 64.015625 
L 19.390625 0 
L 9.8125 0 
z
" id="DejaVuSans-77"/>
       <path d="M 41.109375 46.296875 
Q 39.59375 47.171875 37.8125 47.578125 
Q 36.03125 48 33.890625 48 
Q 26.265625 48 22.1875 43.046875 
Q 18.109375 38.09375 18.109375 28.8125 
L 18.109375 0 
L 9.078125 0 
L 9.078125 54.6875 
L 18.109375 54.6875 
L 18.109375 46.1875 
Q 20.953125 51.171875 25.484375 53.578125 
Q 30.03125 56 36.53125 56 
Q 37.453125 56 38.578125 55.875 
Q 39.703125 55.765625 41.0625 55.515625 
z
" id="DejaVuSans-114"/>
       <path d="M 32.171875 -5.078125 
Q 28.375 -14.84375 24.75 -17.8125 
Q 21.140625 -20.796875 15.09375 -20.796875 
L 7.90625 -20.796875 
L 7.90625 -13.28125 
L 13.1875 -13.28125 
Q 16.890625 -13.28125 18.9375 -11.515625 
Q 21 -9.765625 23.484375 -3.21875 
L 25.09375 0.875 
L 2.984375 54.6875 
L 12.5 54.6875 
L 29.59375 11.921875 
L 46.6875 54.6875 
L 56.203125 54.6875 
z
" id="DejaVuSans-121"/>
       <path d="M 45.40625 27.984375 
Q 45.40625 37.75 41.375 43.109375 
Q 37.359375 48.484375 30.078125 48.484375 
Q 22.859375 48.484375 18.828125 43.109375 
Q 14.796875 37.75 14.796875 27.984375 
Q 14.796875 18.265625 18.828125 12.890625 
Q 22.859375 7.515625 30.078125 7.515625 
Q 37.359375 7.515625 41.375 12.890625 
Q 45.40625 18.265625 45.40625 27.984375 
z
M 54.390625 6.78125 
Q 54.390625 -7.171875 48.1875 -13.984375 
Q 42 -20.796875 29.203125 -20.796875 
Q 24.46875 -20.796875 20.265625 -20.09375 
Q 16.0625 -19.390625 12.109375 -17.921875 
L 12.109375 -9.1875 
Q 16.0625 -11.328125 19.921875 -12.34375 
Q 23.78125 -13.375 27.78125 -13.375 
Q 36.625 -13.375 41.015625 -8.765625 
Q 45.40625 -4.15625 45.40625 5.171875 
L 45.40625 9.625 
Q 42.625 4.78125 38.28125 2.390625 
Q 33.9375 0 27.875 0 
Q 17.828125 0 11.671875 7.65625 
Q 5.515625 15.328125 5.515625 27.984375 
Q 5.515625 40.671875 11.671875 48.328125 
Q 17.828125 56 27.875 56 
Q 33.9375 56 38.28125 53.609375 
Q 42.625 51.21875 45.40625 46.390625 
L 45.40625 54.6875 
L 54.390625 54.6875 
z
" id="DejaVuSans-103"/>
       <path d="M 34.28125 27.484375 
Q 23.390625 27.484375 19.1875 25 
Q 14.984375 22.515625 14.984375 16.5 
Q 14.984375 11.71875 18.140625 8.90625 
Q 21.296875 6.109375 26.703125 6.109375 
Q 34.1875 6.109375 38.703125 11.40625 
Q 43.21875 16.703125 43.21875 25.484375 
L 43.21875 27.484375 
z
M 52.203125 31.203125 
L 52.203125 0 
L 43.21875 0 
L 43.21875 8.296875 
Q 40.140625 3.328125 35.546875 0.953125 
Q 30.953125 -1.421875 24.3125 -1.421875 
Q 15.921875 -1.421875 10.953125 3.296875 
Q 6 8.015625 6 15.921875 
Q 6 25.140625 12.171875 29.828125 
Q 18.359375 34.515625 30.609375 34.515625 
L 43.21875 34.515625 
L 43.21875 35.40625 
Q 43.21875 41.609375 39.140625 45 
Q 35.0625 48.390625 27.6875 48.390625 
Q 23 48.390625 18.546875 47.265625 
Q 14.109375 46.140625 10.015625 43.890625 
L 10.015625 52.203125 
Q 14.9375 54.109375 19.578125 55.046875 
Q 24.21875 56 28.609375 56 
Q 40.484375 56 46.34375 49.84375 
Q 52.203125 43.703125 52.203125 31.203125 
z
" id="DejaVuSans-97"/>
       <path d="M 19.671875 34.8125 
L 19.671875 8.109375 
L 35.5 8.109375 
Q 43.453125 8.109375 47.28125 11.40625 
Q 51.125 14.703125 51.125 21.484375 
Q 51.125 28.328125 47.28125 31.5625 
Q 43.453125 34.8125 35.5 34.8125 
z
M 19.671875 64.796875 
L 19.671875 42.828125 
L 34.28125 42.828125 
Q 41.5 42.828125 45.03125 45.53125 
Q 48.578125 48.25 48.578125 53.8125 
Q 48.578125 59.328125 45.03125 62.0625 
Q 41.5 64.796875 34.28125 64.796875 
z
M 9.8125 72.90625 
L 35.015625 72.90625 
Q 46.296875 72.90625 52.390625 68.21875 
Q 58.5 63.53125 58.5 54.890625 
Q 58.5 48.1875 55.375 44.234375 
Q 52.25 40.28125 46.1875 39.3125 
Q 53.46875 37.75 57.5 32.78125 
Q 61.53125 27.828125 61.53125 20.40625 
Q 61.53125 10.640625 54.890625 5.3125 
Q 48.25 0 35.984375 0 
L 9.8125 0 
z
" id="DejaVuSans-66"/>
       <path d="M 18.3125 70.21875 
L 18.3125 54.6875 
L 36.8125 54.6875 
L 36.8125 47.703125 
L 18.3125 47.703125 
L 18.3125 18.015625 
Q 18.3125 11.328125 20.140625 9.421875 
Q 21.96875 7.515625 27.59375 7.515625 
L 36.8125 7.515625 
L 36.8125 0 
L 27.59375 0 
Q 17.1875 0 13.234375 3.875 
Q 9.28125 7.765625 9.28125 18.015625 
L 9.28125 47.703125 
L 2.6875 47.703125 
L 2.6875 54.6875 
L 9.28125 54.6875 
L 9.28125 70.21875 
z
" id="DejaVuSans-116"/>
      </defs>
      <use xlink:href="#DejaVuSans-77"/>
      <use x="86.279297" xlink:href="#DejaVuSans-101"/>
      <use x="147.802734" xlink:href="#DejaVuSans-109"/>
      <use x="245.214844" xlink:href="#DejaVuSans-111"/>
      <use x="306.396484" xlink:href="#DejaVuSans-114"/>
      <use x="347.509766" xlink:href="#DejaVuSans-121"/>
      <use x="406.689453" xlink:href="#DejaVuSans-32"/>
      <use x="438.476562" xlink:href="#DejaVuSans-40"/>
      <use x="477.490234" xlink:href="#DejaVuSans-105"/>
      <use x="505.273438" xlink:href="#DejaVuSans-110"/>
      <use x="568.652344" xlink:href="#DejaVuSans-32"/>
      <use x="600.439453" xlink:href="#DejaVuSans-77"/>
      <use x="686.71875" xlink:href="#DejaVuSans-101"/>
      <use x="748.242188" xlink:href="#DejaVuSans-103"/>
      <use x="811.71875" xlink:href="#DejaVuSans-97"/>
      <use x="872.998047" xlink:href="#DejaVuSans-66"/>
      <use x="941.601562" xlink:href="#DejaVuSans-121"/>
      <use x="1000.78125" xlink:href="#DejaVuSans-116"/>
      <use x="1039.990234" xlink:href="#DejaVuSans-101"/>
      <use x="1101.513672" xlink:href="#DejaVuSans-115"/>
      <use x="1153.613281" xlink:href="#DejaVuSans-41"/>
     </g>
    </g>
   </g>
   <g id="line2d_16">
    <path clip-path="url(#p170c5a53bd)" d="M 461.454545 377.926527 
L 462.200693 918.088199 
L 462.881674 915.787492 
L 463.570483 912.911185 
L 465.062284 910.768154 
L 465.746086 910.272239 
L 467.827977 901.53481 
L 468.646269 898.480482 
L 469.576434 897.42253 
L 470.304362 895.067569 
L 471.028266 893.715459 
L 471.733718 893.179701 
L 472.421581 890.455135 
L 474.546197 888.208683 
L 475.233957 886.664988 
L 475.927057 883.458919 
L 476.634645 881.536294 
L 477.340545 878.817663 
L 478.129006 877.519806 
L 478.820643 875.853193 
L 481.598743 863.806272 
L 482.981292 860.003409 
L 483.665422 856.10645 
L 484.369941 855.82755 
L 485.074181 854.77638 
L 485.77575 855.345199 
L 486.476411 854.439836 
L 487.17503 853.342041 
L 487.903828 854.026997 
L 488.62596 846.788333 
L 489.321961 846.292418 
L 490.017183 846.099986 
L 491.444933 845.397228 
L 492.146496 845.275157 
L 492.828886 844.978455 
L 493.507972 845.309913 
L 494.187999 843.168577 
L 494.885556 846.558602 
L 496.246393 846.898537 
L 496.928376 847.480919 
L 496.988458 861.825155 
L 497.605502 920.493175 
L 498.283258 920.565231 
L 498.959953 921.268837 
L 499.641174 920.817851 
L 501.670763 921.990245 
L 505.424056 922.223367 
L 506.106064 922.436992 
L 506.785373 922.349677 
L 508.15242 922.718435 
L 508.840699 922.592125 
L 509.52002 922.638749 
L 510.20192 922.849831 
L 512.929326 923.023613 
L 513.608193 923.209263 
L 514.288015 922.678592 
L 516.35517 915.163572 
L 517.086329 912.226229 
L 517.835871 911.197947 
L 518.550364 910.784261 
L 519.237411 910.200183 
L 519.938606 906.670285 
L 522.144108 898.472852 
L 522.882867 897.625134 
L 523.583802 893.559479 
L 524.322075 892.260775 
L 525.015868 891.279117 
L 525.714077 889.835453 
L 526.418096 888.898725 
L 527.124292 887.242284 
L 527.80974 886.614973 
L 528.492775 885.810488 
L 529.199196 883.624224 
L 529.93482 882.990978 
L 530.67238 879.61367 
L 531.395119 878.377697 
L 532.104958 876.299092 
L 532.825323 872.279214 
L 534.973307 865.435586 
L 535.734194 863.659617 
L 536.483167 861.373322 
L 537.174935 858.652994 
L 538.575595 857.564525 
L 539.269305 857.372093 
L 541.423726 855.948774 
L 542.10853 855.341808 
L 543.540599 854.75773 
L 544.98316 853.956637 
L 545.66983 853.411554 
L 546.407991 853.255574 
L 547.156975 852.447699 
L 547.883198 850.559831 
L 548.5638 852.294262 
L 550.606122 852.553663 
L 550.870317 866.001862 
L 551.294188 921.918189 
L 551.98708 920.221905 
L 552.689333 917.059069 
L 554.200275 912.538189 
L 555.589248 911.30815 
L 556.27309 908.31062 
L 556.962528 906.613488 
L 557.686806 903.030184 
L 559.123401 898.594076 
L 559.900078 896.83167 
L 560.672886 893.467077 
L 562.150896 891.332523 
L 562.834918 890.69504 
L 563.554319 889.605722 
L 564.236379 887.57798 
L 564.920838 886.65312 
L 565.611624 884.373606 
L 566.30918 883.338543 
L 567.038893 881.212466 
L 567.735639 878.590474 
L 568.448364 877.499461 
L 569.142769 873.093023 
L 569.833485 870.307422 
L 571.255677 865.806887 
L 572.653546 862.296486 
L 573.352323 858.231679 
L 574.128729 856.634578 
L 574.824528 856.130186 
L 576.922411 855.012893 
L 577.62039 853.206406 
L 578.346343 851.940763 
L 579.050046 851.324472 
L 582.54378 849.8469 
L 583.309621 848.443079 
L 584.079914 846.507739 
L 584.776161 845.777853 
L 585.482033 842.840511 
L 586.276681 842.50651 
L 587.6472 842.301362 
L 588.332201 842.438692 
L 589.026448 921.411254 
L 590.416356 917.036181 
L 591.11125 914.384519 
L 591.813694 912.623809 
L 592.500901 911.7727 
L 593.241192 911.235247 
L 593.926163 907.767232 
L 594.656701 905.043514 
L 595.365402 901.840836 
L 596.152359 899.279032 
L 597.084962 898.188867 
L 597.946291 893.667139 
L 598.745633 892.161592 
L 599.445762 891.707215 
L 600.168967 891.07736 
L 600.855813 889.064878 
L 601.539055 888.460455 
L 602.223381 887.480493 
L 602.919853 885.435797 
L 603.616193 884.12353 
L 604.663334 879.929021 
L 605.377597 878.492987 
L 606.096141 876.071056 
L 606.8206 871.962167 
L 608.217244 867.474348 
L 610.38991 861.582708 
L 611.105381 858.697076 
L 611.790364 858.001099 
L 612.489386 857.52553 
L 613.257505 857.346661 
L 618.389223 854.461877 
L 619.108843 854.301658 
L 619.800559 853.955789 
L 620.501433 853.388666 
L 621.202786 852.651999 
L 621.9406 852.886817 
L 622.626473 852.684212 
L 623.3091 849.451016 
L 623.986389 852.641826 
L 624.667349 852.721512 
L 625.345809 852.61809 
L 625.835533 866.401985 
L 626.030625 922.896456 
L 626.714678 920.832262 
L 627.526359 917.727071 
L 628.998583 912.951028 
L 629.768227 911.682842 
L 630.499427 910.995342 
L 631.197404 908.214827 
L 631.884188 906.509219 
L 632.669648 903.046291 
L 633.439078 900.230172 
L 634.14729 898.204973 
L 634.889382 896.606177 
L 635.754166 892.597319 
L 636.489672 892.12514 
L 637.932191 890.413597 
L 638.649291 888.748679 
L 640.032653 887.396569 
L 640.733908 884.798313 
L 641.459713 882.927399 
L 642.176972 879.121993 
L 643.670115 876.198214 
L 644.374748 870.904215 
L 645.771572 866.442675 
L 647.221222 862.934818 
L 647.918317 860.681584 
L 648.632417 857.14999 
L 649.321096 856.74139 
L 650.757786 856.186983 
L 652.218944 855.122249 
L 652.937938 854.911167 
L 653.659361 854.347435 
L 654.378381 854.032931 
L 655.093023 853.905774 
L 655.79411 853.583641 
L 657.201935 850.150383 
L 657.921674 848.046347 
L 659.31183 845.365863 
L 660.002366 841.613863 
L 660.682839 840.001503 
L 661.366843 841.034024 
L 662.727795 841.387522 
L 663.408697 841.44771 
L 663.823059 855.691916 
L 664.090371 922.507353 
L 664.776336 920.541495 
L 666.917674 912.532255 
L 667.628571 911.677755 
L 668.33581 911.076723 
L 669.074818 908.453036 
L 669.763426 906.606706 
L 671.202638 900.395477 
L 671.987225 898.4364 
L 672.837072 897.323347 
L 673.751555 892.620207 
L 674.440703 891.462224 
L 675.837248 890.161825 
L 676.542384 888.427394 
L 677.229713 887.839078 
L 677.913201 886.938801 
L 679.33902 883.67763 
L 680.040599 881.010709 
L 680.737921 879.174552 
L 681.433576 876.984049 
L 682.125122 871.98336 
L 683.51261 866.692752 
L 684.935084 862.732214 
L 685.629819 860.87995 
L 686.313637 858.36477 
L 686.997332 856.89398 
L 689.838113 855.620707 
L 690.553302 854.716192 
L 694.122099 853.332716 
L 695.525847 852.559597 
L 696.237613 852.123023 
L 696.943142 851.909398 
L 697.624088 849.151771 
L 698.306113 851.894987 
L 698.987317 852.069616 
L 699.668713 851.974672 
L 700.36398 866.155299 
L 701.032944 921.518914 
L 701.731314 918.742637 
L 702.419939 916.919196 
L 703.106773 914.409103 
L 703.830926 912.436463 
L 705.282419 911.317475 
L 705.974328 907.895238 
L 706.748556 906.286269 
L 707.450997 901.970537 
L 708.194489 899.143397 
L 709.006491 898.238882 
L 709.74911 893.966383 
L 710.52168 892.042063 
L 712.631392 890.17115 
L 713.319272 888.48843 
L 714.687769 887.048157 
L 715.383081 885.228954 
L 716.085523 883.943813 
L 716.786972 880.409677 
L 717.479267 879.070283 
L 718.191137 876.47457 
L 718.889966 871.371308 
L 719.596074 869.646202 
L 720.285843 867.568445 
L 720.995452 864.782843 
L 721.704547 863.180656 
L 722.409824 862.193065 
L 723.131721 859.784698 
L 723.8162 858.392745 
L 724.530808 857.821383 
L 725.947121 857.162706 
L 726.646099 856.623558 
L 730.926535 854.477983 
L 731.629861 854.321155 
L 732.358407 854.000718 
L 733.048111 853.263203 
L 733.909898 853.89221 
L 734.635949 853.454788 
L 735.353566 853.214884 
L 736.053057 850.553897 
L 736.774888 852.761354 
L 737.45173 853.002954 
L 738.813953 853.092812 
L 738.890107 866.817367 
L 739.496012 921.615554 
L 740.212817 919.565771 
L 740.893999 916.994643 
L 741.585701 915.082191 
L 742.364937 911.976152 
L 743.740056 910.213746 
L 744.427872 906.585513 
L 745.115671 904.873123 
L 745.809569 900.687092 
L 747.356958 897.291133 
L 748.983829 890.972243 
L 750.422327 888.749527 
L 751.114842 887.335533 
L 751.810239 885.426472 
L 753.177659 883.700518 
L 753.891651 882.050011 
L 754.596529 881.205684 
L 755.332519 878.845637 
L 756.043749 875.963396 
L 756.77431 875.100419 
L 757.501201 869.239297 
L 759.6678 862.434664 
L 760.395165 860.663782 
L 761.151315 858.437674 
L 761.833571 855.287554 
L 763.242866 854.455943 
L 763.959094 854.359303 
L 764.6835 854.005804 
L 765.479092 853.361539 
L 766.900283 852.829172 
L 769.044566 851.45163 
L 769.753906 851.361772 
L 771.243636 850.831948 
L 771.939748 850.379267 
L 774.040732 849.608691 
L 774.723528 849.22637 
L 775.422121 849.128035 
L 776.112083 848.857613 
L 776.798457 847.081644 
L 777.509781 849.928281 
L 778.18791 849.693463 
L 779.542942 849.796037 
L 780.064705 865.602587 
L 780.222635 923.4 
L 782.391486 915.386522 
L 783.130395 912.71621 
L 784.595175 911.310694 
L 786.020291 907.038195 
L 787.485124 901.161814 
L 788.226168 898.728863 
L 789.042608 897.120742 
L 789.936026 893.773951 
L 790.709419 892.695654 
L 792.118042 891.479179 
L 792.815924 889.350559 
L 794.190699 887.869595 
L 794.891567 885.306944 
L 795.632393 883.434335 
L 797.016837 880.959846 
L 797.713619 878.988054 
L 798.443425 873.385486 
L 799.856366 867.242073 
L 800.55098 864.94391 
L 801.956393 861.432662 
L 802.662522 859.131107 
L 803.365015 857.835794 
L 805.579807 856.765974 
L 807.778328 855.112076 
L 808.527284 854.734842 
L 810.006835 854.403384 
L 810.717409 853.301351 
L 812.854418 852.379881 
L 813.574406 852.370556 
L 814.267895 852.074703 
L 814.979715 851.976368 
L 817.08751 851.011664 
L 817.809574 850.856532 
L 818.496853 850.325861 
L 819.879976 848.71011 
L 821.30884 847.540259 
L 822.686062 845.884666 
L 823.366556 843.386441 
L 824.052072 841.559609 
L 824.744728 844.71312 
L 825.426321 844.647845 
L 826.105071 844.768221 
L 826.782846 844.714815 
L 826.865173 869.3868 
L 827.470847 921.413797 
L 828.191058 919.329258 
L 828.880372 916.60554 
L 829.56821 914.669352 
L 830.331772 912.060924 
L 831.745831 910.667276 
L 832.430648 907.568019 
L 833.129761 905.490262 
L 833.817073 901.912044 
L 834.576297 899.084905 
L 835.378305 898.332131 
L 836.849705 891.661438 
L 837.559448 891.137548 
L 838.244962 890.42377 
L 838.934526 889.500605 
L 839.625112 887.805169 
L 840.315416 887.233807 
L 840.998897 886.410673 
L 841.695946 884.705064 
L 843.792065 881.135324 
L 844.517752 879.099105 
L 845.229024 875.7947 
L 846.640768 867.766811 
L 847.363428 865.316906 
L 848.048796 863.656226 
L 849.429244 859.221813 
L 850.135904 857.966343 
L 851.560674 857.203397 
L 852.266012 856.925345 
L 853.67626 856.108145 
L 854.379669 855.44862 
L 855.092681 854.578862 
L 855.790749 854.635659 
L 856.497195 854.344892 
L 857.227227 854.167719 
L 857.937539 852.546034 
L 858.632314 852.223901 
L 862.154023 851.424503 
L 862.864188 851.359229 
L 865.006461 850.63443 
L 865.692333 847.088426 
L 866.401556 846.982461 
L 867.104655 846.71543 
L 867.816014 846.181367 
L 869.264505 845.754965 
L 870.665874 845.440462 
L 871.354855 845.008126 
L 872.086448 844.81315 
L 872.805744 844.441002 
L 873.4958 844.443545 
L 874.1967 844.104458 
L 875.572337 843.915417 
L 876.254883 843.880661 
L 876.951678 843.66534 
L 878.344349 840.12527 
L 879.025757 843.47969 
L 879.704506 843.739092 
L 880.382667 843.575482 
L 881.063945 843.558528 
L 881.467193 857.669642 
L 881.748342 922.168266 
L 882.436317 920.419424 
L 883.837221 914.758363 
L 884.549422 912.889145 
L 885.233277 912.082965 
L 885.920916 911.447176 
L 887.327548 907.071256 
L 888.811825 901.034656 
L 889.555143 898.739883 
L 890.355724 897.489499 
L 891.272771 892.326049 
L 893.48836 890.415293 
L 894.181651 888.311256 
L 895.557496 886.982882 
L 896.257713 884.68048 
L 896.995905 883.023192 
L 898.398514 879.024506 
L 899.120143 876.982353 
L 899.813189 871.543394 
L 901.198479 867.315825 
L 901.915032 865.09226 
L 902.616159 863.410388 
L 903.304105 861.397905 
L 903.987698 857.71118 
L 904.675684 856.322618 
L 906.095912 855.559671 
L 906.801908 855.404539 
L 907.497428 854.863695 
L 908.228201 852.976675 
L 909.704711 851.956022 
L 910.412849 851.711879 
L 911.837161 850.866705 
L 912.539582 850.601369 
L 913.247982 848.675354 
L 913.96469 847.57332 
L 914.691578 846.155088 
L 915.395562 841.772386 
L 916.076961 842.693008 
L 917.433772 843.149928 
L 918.111348 843.098217 
L 918.565013 856.261582 
L 918.793117 922.489551 
L 919.481512 920.536409 
L 921.669553 912.483935 
L 923.069247 910.878357 
L 923.754832 907.618882 
L 924.439436 905.594531 
L 925.875244 899.620662 
L 926.598156 897.39625 
L 927.443758 896.566334 
L 928.163247 892.636314 
L 928.879071 890.553471 
L 930.977357 887.316036 
L 931.671313 885.362893 
L 933.03981 883.853108 
L 933.745009 881.673625 
L 934.444786 880.385093 
L 935.136309 878.092016 
L 935.863517 876.160067 
L 936.565899 874.884251 
L 937.2723 870.132792 
L 937.984689 869.012956 
L 939.382707 864.184354 
L 940.084067 863.477358 
L 940.798786 861.525911 
L 941.497843 857.468732 
L 942.181512 856.707482 
L 942.883354 856.48538 
L 943.58536 856.139511 
L 944.275886 854.552583 
L 944.979215 854.42712 
L 945.700779 854.697542 
L 946.436019 854.127028 
L 947.150506 853.341193 
L 947.871332 852.965654 
L 948.573007 853.801504 
L 949.266936 853.341193 
L 949.959369 852.623176 
L 951.366481 851.787326 
L 952.048048 851.572006 
L 952.750382 851.55929 
L 955.613081 850.560678 
L 956.295823 848.018372 
L 956.981614 850.059677 
L 958.341082 850.31484 
L 959.021499 850.323317 
L 959.246939 865.707704 
L 959.70848 921.9699 
L 960.394449 920.24988 
L 961.08998 917.148927 
L 962.622746 912.449179 
L 964.049711 910.524859 
L 964.743173 906.786423 
L 965.444785 904.860407 
L 966.143409 900.911737 
L 966.837843 898.290593 
L 967.536624 897.437788 
L 968.367359 895.603327 
L 969.144354 891.831829 
L 969.877083 890.528039 
L 970.565287 888.741897 
L 971.27894 887.567808 
L 971.977483 885.469706 
L 972.660605 884.944121 
L 973.346318 883.969245 
L 974.041034 882.477261 
L 974.745616 881.410832 
L 975.454322 879.650122 
L 976.142825 877.617294 
L 976.881568 875.028363 
L 978.261326 868.315284 
L 980.381674 862.015892 
L 981.092655 860.995239 
L 981.795433 857.14999 
L 982.496958 855.713108 
L 983.993381 854.584796 
L 984.674832 854.250795 
L 985.396761 853.607377 
L 986.107579 853.1903 
L 986.882812 852.943614 
L 987.607684 852.012819 
L 988.336885 852.681669 
L 989.030772 852.570618 
L 989.767295 851.80089 
L 991.186907 851.09135 
L 991.906769 850.071545 
L 992.617725 850.198703 
L 993.326131 850.808212 
L 994.722636 850.245327 
L 995.430654 849.697702 
L 996.118907 849.585803 
L 997.587741 849.007659 
L 998.294331 845.604919 
L 999.000347 845.303979 
L 999.687465 844.413027 
L 1000.396827 844.30791 
L 1003.167744 843.504274 
L 1003.890058 843.417807 
L 1004.575663 840.334656 
L 1005.278916 843.108389 
L 1007.326735 843.199095 
L 1007.785151 858.530075 
L 1008.036501 898.021866 
L 1008.724457 920.466048 
L 1010.817393 912.721296 
L 1012.227175 911.337821 
L 1012.910929 907.806227 
L 1013.598126 905.836978 
L 1014.300297 902.689402 
L 1015.765308 897.560708 
L 1016.594057 896.802848 
L 1017.301075 893.660357 
L 1018.014584 892.433709 
L 1019.383835 890.831522 
L 1020.100179 888.530815 
L 1021.479298 886.792146 
L 1023.637443 880.827602 
L 1024.336331 877.624923 
L 1025.032158 876.650895 
L 1025.73473 874.331539 
L 1026.435867 869.825918 
L 1027.125462 867.097113 
L 1029.902001 859.415093 
L 1030.603825 855.509656 
L 1031.287366 855.103599 
L 1032.011595 855.030695 
L 1032.701749 854.404232 
L 1033.399979 854.110921 
L 1034.12008 853.477676 
L 1034.831171 853.252183 
L 1035.542225 852.25018 
L 1036.999639 851.694077 
L 1037.730164 851.632194 
L 1038.454342 851.179513 
L 1039.178965 851.069309 
L 1039.900738 850.752263 
L 1040.605321 848.506658 
L 1041.31255 847.538564 
L 1042.007553 845.789722 
L 1042.720984 844.480845 
L 1044.857211 839.642918 
L 1045.600445 831.899014 
L 1046.315566 830.296827 
L 1047.017115 827.683313 
L 1047.729966 827.471383 
L 1048.425648 827.411195 
L 1049.124818 827.185702 
L 1049.830041 827.241652 
L 1050.534051 826.861026 
L 1051.237878 825.196956 
L 1052.668018 820.010617 
L 1054.753093 816.155196 
L 1055.458907 814.592004 
L 1057.564081 809.057253 
L 1058.973354 805.874919 
L 1059.674426 799.937503 
L 1060.39651 799.620456 
L 1061.134236 799.553486 
L 1061.827295 799.366141 
L 1062.51604 799.03214 
L 1065.300041 798.601499 
L 1066.678605 798.2853 
L 1068.118299 797.987751 
L 1068.819891 797.855507 
L 1069.507792 795.528521 
L 1070.208158 793.862755 
L 1070.893461 797.637644 
L 1072.926241 797.864832 
L 1073.386638 813.422153 
L 1073.64594 847.167263 
L 1074.332601 920.431292 
L 1075.047862 917.385441 
L 1075.745985 915.412801 
L 1076.50553 912.633981 
L 1077.19234 911.510755 
L 1077.902649 910.771545 
L 1078.587647 907.351851 
L 1079.275 905.415663 
L 1079.988675 902.126517 
L 1080.721624 899.344306 
L 1081.481222 897.373362 
L 1082.294303 896.168755 
L 1083.12853 892.246363 
L 1085.213523 890.164368 
L 1085.894788 887.528813 
L 1086.574214 886.891329 
L 1087.259342 886.075824 
L 1087.957044 883.760706 
L 1088.663195 882.050011 
L 1089.380527 879.25339 
L 1090.082075 877.005241 
L 1090.789916 875.403902 
L 1091.485136 871.086474 
L 1092.174291 867.608287 
L 1094.282825 861.586099 
L 1094.978607 859.855906 
L 1095.681253 857.075391 
L 1096.365944 855.680047 
L 1097.063156 855.049345 
L 1098.524968 854.663634 
L 1099.935362 853.809982 
L 1100.637386 852.809674 
L 1101.339448 852.585877 
L 1102.043521 852.556207 
L 1102.773932 851.584722 
L 1104.18411 851.182056 
L 1106.291246 846.673891 
L 1106.993114 845.537949 
L 1107.677432 841.587583 
L 1108.399184 836.567397 
L 1109.099939 836.3436 
L 1109.802344 835.968061 
L 1110.490324 832.126203 
L 1111.895581 831.893928 
L 1112.603899 831.820177 
L 1113.322401 831.583663 
L 1114.023852 828.281802 
L 1116.847828 822.56903 
L 1117.582117 820.806624 
L 1118.278762 818.777187 
L 1120.408254 813.651884 
L 1121.112913 808.738511 
L 1121.798921 808.457916 
L 1122.495211 808.397728 
L 1125.294789 807.687341 
L 1126.009409 807.585614 
L 1126.705214 805.318816 
L 1127.40922 803.491136 
L 1128.112307 796.828921 
L 1128.834229 796.441514 
L 1130.264273 796.323681 
L 1131.665839 795.954076 
L 1132.372372 795.848959 
L 1133.082067 795.193673 
L 1134.484181 794.891037 
L 1135.188004 794.384102 
L 1135.88583 792.241919 
L 1136.593502 784.071612 
L 1137.297894 783.103518 
L 1137.989765 782.452471 
L 1139.412354 782.008267 
L 1140.135536 782.130338 
L 1140.824144 781.965033 
L 1141.513894 781.947231 
L 1142.211371 781.738692 
L 1142.907782 781.821769 
L 1143.626243 781.658159 
L 1144.323941 781.741236 
L 1145.740297 781.54287 
L 1146.444149 781.225823 
L 1147.167292 777.709489 
L 1147.861323 771.030319 
L 1149.980243 764.613941 
L 1152.802302 757.944944 
L 1153.529275 757.204038 
L 1158.469335 750.481634 
L 1160.563141 746.595695 
L 1161.252321 743.327742 
L 1163.371543 743.19465 
L 1164.074685 743.313331 
L 1170.402244 742.38508 
L 1172.513261 742.346085 
L 1173.218214 741.639936 
L 1174.69344 738.992512 
L 1175.561043 734.195276 
L 1176.354528 731.833534 
L 1177.240325 730.446667 
L 1178.753402 725.229811 
L 1179.441885 734.905664 
L 1180.120849 734.809872 
L 1181.484261 734.8921 
L 1181.731041 754.940631 
L 1182.204739 921.501959 
L 1182.89477 920.025235 
L 1183.611006 917.042963 
L 1185.012181 912.694169 
L 1186.443091 910.878357 
L 1187.128949 907.250124 
L 1187.816927 905.429226 
L 1188.525577 901.695876 
L 1189.94073 897.470002 
L 1190.689051 896.238268 
L 1191.437114 892.404039 
L 1192.150083 891.163828 
L 1192.832041 890.606029 
L 1193.521924 889.895641 
L 1194.21943 888.652039 
L 1194.905982 886.887938 
L 1195.590017 885.907128 
L 1196.316139 883.67 
L 1197.014749 882.484891 
L 1197.712248 880.41222 
L 1198.425803 877.73004 
L 1199.130212 876.56358 
L 1199.832225 873.99669 
L 1200.540466 870.315051 
L 1201.248161 867.684582 
L 1202.63129 863.687592 
L 1203.315135 862.147288 
L 1204.023998 860.042404 
L 1204.708343 857.606063 
L 1206.106284 856.532852 
L 1207.511891 855.838571 
L 1208.224136 855.12564 
L 1208.963302 854.875563 
L 1209.651188 854.348282 
L 1211.307305 853.902383 
L 1212.008766 853.493783 
L 1213.389532 852.90038 
L 1214.77844 851.935677 
L 1215.480523 852.12387 
L 1216.177356 852.025535 
L 1216.863584 849.207721 
L 1217.546179 851.69323 
L 1218.908524 851.872946 
L 1219.590337 866.54101 
L 1220.276 920.914491 
L 1222.437135 912.63822 
L 1223.152586 911.78372 
L 1223.84804 911.309846 
L 1225.226069 905.923446 
L 1226.708963 900.148791 
L 1227.429385 897.757378 
L 1228.263224 896.582441 
L 1229.035061 892.20313 
L 1229.793616 891.081599 
L 1231.162535 889.872753 
L 1231.854894 888.852948 
L 1232.548961 886.921847 
L 1233.23986 886.06989 
L 1233.93899 884.417688 
L 1234.635446 882.224641 
L 1235.345262 880.67586 
L 1236.040631 878.005549 
L 1236.738658 876.886561 
L 1237.439433 873.627933 
L 1238.1364 869.507176 
L 1239.570586 864.972732 
L 1241.648903 859.478672 
L 1242.332311 856.848203 
L 1243.753367 856.090343 
L 1244.483948 855.767362 
L 1245.175874 855.626641 
L 1248.031573 854.028693 
L 1248.729834 853.377645 
L 1249.419901 853.291178 
L 1250.120065 852.748639 
L 1251.523722 852.1315 
L 1255.672299 850.573394 
L 1256.363009 850.247871 
L 1257.070671 850.046114 
L 1257.765843 850.663252 
L 1258.469768 850.132581 
L 1259.156945 847.036715 
L 1259.839156 850.305515 
L 1260.542757 850.408089 
L 1261.224866 850.354683 
L 1261.916207 865.714485 
L 1262.594823 921.022151 
L 1264.02096 915.666269 
L 1264.718586 913.369801 
L 1265.402816 912.29998 
L 1266.839452 910.894464 
L 1267.522022 907.868958 
L 1268.269511 905.634374 
L 1268.975468 901.734023 
L 1269.710961 899.067102 
L 1270.50982 898.259227 
L 1271.213913 895.054853 
L 1271.974076 892.603253 
L 1272.663241 891.227406 
L 1273.348083 890.723014 
L 1274.033169 889.869362 
L 1274.740113 887.931479 
L 1275.437953 887.292299 
L 1276.127252 886.4378 
L 1276.811757 884.241362 
L 1277.515449 883.651351 
L 1278.232366 881.03275 
L 1280.358372 872.317361 
L 1281.053092 869.803877 
L 1283.874903 861.475895 
L 1284.566488 859.291326 
L 1285.273975 858.750482 
L 1286.748942 858.102826 
L 1288.222998 856.931279 
L 1288.960997 856.898218 
L 1289.664572 855.247711 
L 1291.904496 854.477136 
L 1292.641795 852.835106 
L 1293.34202 850.328404 
L 1294.051986 849.748565 
L 1294.771787 849.329792 
L 1296.209537 849.401848 
L 1296.90562 849.117862 
L 1297.63429 849.066152 
L 1299.772007 848.448165 
L 1300.473931 848.266754 
L 1302.595289 841.44771 
L 1303.301707 840.154092 
L 1304.698223 836.939546 
L 1306.106616 833.686852 
L 1308.207092 829.23718 
L 1308.927537 827.806232 
L 1309.640138 826.934778 
L 1313.222509 821.71453 
L 1313.938474 817.019868 
L 1316.131772 816.753685 
L 1316.821726 813.689184 
L 1317.538953 812.288754 
L 1318.242434 816.48411 
L 1318.922364 816.793527 
L 1319.603651 816.810482 
L 1320.28076 830.184081 
L 1320.963313 921.123029 
L 1323.142019 912.873886 
L 1323.892058 911.78372 
L 1324.586172 911.02586 
L 1325.291141 909.106627 
L 1326.78582 902.70466 
L 1327.472444 899.967379 
L 1328.162286 897.792982 
L 1328.877207 896.978325 
L 1330.326913 892.256536 
L 1331.031988 891.485113 
L 1331.718299 889.408204 
L 1333.09549 887.637321 
L 1333.779617 886.880308 
L 1334.462854 885.740976 
L 1335.1857 882.231423 
L 1335.875058 880.79115 
L 1337.263333 876.608509 
L 1337.970289 875.555644 
L 1339.382235 868.015192 
L 1340.790127 863.79949 
L 1342.203307 860.16278 
L 1342.891051 856.38111 
L 1343.584123 854.984071 
L 1344.300779 854.615314 
L 1345.038234 854.446618 
L 1345.743116 854.114312 
L 1346.445546 852.624024 
L 1347.135684 852.319693 
L 1347.837801 850.876877 
L 1348.544023 851.094741 
L 1349.274349 850.986233 
L 1349.962656 849.902002 
L 1351.393364 845.047121 
L 1352.832691 844.59783 
L 1353.542427 844.726683 
L 1355.629775 844.14091 
L 1357.05328 844.195164 
L 1358.461279 843.765371 
L 1359.175444 843.680599 
L 1359.884982 837.991564 
L 1360.585627 836.751352 
L 1362.008665 833.441861 
L 1363.438529 830.880057 
L 1365.545622 825.699653 
L 1366.939116 821.9858 
L 1368.342481 818.600014 
L 1369.041627 810.752689 
L 1369.758322 810.461922 
L 1370.474314 810.587384 
L 1371.164027 810.470399 
L 1371.880722 810.204215 
L 1375.451771 809.369213 
L 1376.85669 805.824904 
L 1377.554306 798.776977 
L 1378.244214 796.473727 
L 1378.956869 796.053259 
L 1380.370792 795.679415 
L 1381.080675 795.55141 
L 1382.501327 795.009718 
L 1383.19127 794.495153 
L 1383.92349 794.566361 
L 1384.63191 794.250162 
L 1385.33125 794.156913 
L 1386.735704 794.189127 
L 1387.438994 794.18404 
L 1388.139013 793.356668 
L 1388.830664 782.588106 
L 1391.743882 781.777688 
L 1392.478576 781.704784 
L 1393.908724 781.153767 
L 1394.616511 781.045259 
L 1396.040145 780.468811 
L 1396.805362 780.4171 
L 1397.509721 780.246709 
L 1398.946847 780.090729 
L 1399.636295 779.909317 
L 1401.078378 779.87117 
L 1402.475338 779.575316 
L 1403.169169 772.889364 
L 1404.574236 769.836732 
L 1405.293669 768.765216 
L 1410.878543 758.585818 
L 1414.380192 751.873587 
L 1415.909073 748.34369 
L 1416.669976 747.01362 
L 1417.355456 743.787205 
L 1418.059687 741.851017 
L 1419.621452 735.576209 
L 1420.354962 744.874827 
L 1421.038137 744.60271 
L 1421.719827 744.694264 
L 1422.40072 744.634076 
L 1422.778874 761.830035 
L 1423.091363 892.911822 
L 1423.780096 920.403317 
L 1425.286742 914.967749 
L 1425.996355 912.564469 
L 1427.374635 911.157257 
L 1428.070037 908.376742 
L 1428.755376 906.514305 
L 1429.451613 903.149712 
L 1430.172483 900.582822 
L 1431.766315 896.784198 
L 1432.459901 892.840614 
L 1433.176395 890.061794 
L 1433.866453 887.89757 
L 1435.349276 884.243906 
L 1436.724528 879.177095 
L 1437.410778 874.904596 
L 1438.106004 873.800867 
L 1438.816967 871.111058 
L 1440.204707 869.872542 
L 1440.898108 868.48398 
L 1441.587884 865.179575 
L 1442.304762 864.228436 
L 1443.022148 862.505873 
L 1443.729156 861.259727 
L 1444.457287 860.848584 
L 1445.831644 858.146059 
L 1447.980266 857.425499 
L 1448.685709 857.358529 
L 1449.388231 857.086412 
L 1450.099524 856.421801 
L 1450.787682 849.774844 
L 1452.200802 843.261826 
L 1452.884658 840.911952 
L 1453.606521 839.135983 
L 1454.318162 837.013297 
L 1455.720841 835.945172 
L 1457.114037 835.259369 
L 1458.528976 832.432229 
L 1459.226346 830.757986 
L 1459.925558 827.094149 
L 1460.628715 826.801686 
L 1461.322896 826.749975 
L 1462.019939 826.56602 
L 1462.735676 826.608406 
L 1464.847921 826.139618 
L 1466.281597 818.162592 
L 1466.983246 816.248445 
L 1468.387253 811.438493 
L 1469.802699 807.326213 
L 1470.499475 805.186572 
L 1471.22751 801.025972 
L 1471.93141 793.404988 
L 1472.636905 793.274439 
L 1475.469399 793.271896 
L 1476.172842 791.514576 
L 1476.869823 788.472117 
L 1478.274606 788.103359 
L 1478.977847 788.213563 
L 1479.693545 788.151679 
L 1480.394893 787.819374 
L 1481.083691 787.643896 
L 1481.79692 787.796485 
L 1482.514502 786.282461 
L 1483.209173 786.11207 
L 1483.904432 786.056968 
L 1484.644128 785.743312 
L 1485.338746 785.832323 
L 1486.042064 785.70686 
L 1486.749197 785.25757 
L 1487.439993 785.030381 
L 1488.165297 785.030381 
L 1488.885861 784.799802 
L 1491.684472 777.47128 
L 1493.839986 771.469437 
L 1495.949401 765.184455 
L 1497.356789 760.80684 
L 1498.09238 758.932535 
L 1498.787902 754.239568 
L 1499.501997 754.024248 
L 1500.212536 753.63345 
L 1501.622979 753.629211 
L 1503.033204 752.588214 
L 1506.533192 752.016852 
L 1507.219194 750.624899 
L 1508.642562 746.220156 
L 1509.335667 740.612501 
L 1510.026308 740.39379 
L 1510.730412 740.016556 
L 1512.818624 739.78089 
L 1513.516219 739.558788 
L 1514.212298 739.540138 
L 1515.636244 739.224787 
L 1517.050789 738.876375 
L 1517.741199 737.861656 
L 1519.134526 736.364586 
L 1519.833799 736.107728 
L 1520.531871 733.759549 
L 1521.218433 730.930714 
L 1521.904657 720.354584 
L 1522.617691 720.080771 
L 1523.298458 719.973959 
L 1525.363362 719.207622 
L 1526.058145 719.194058 
L 1526.745272 720.049406 
L 1528.137033 719.845953 
L 1528.842159 719.682344 
L 1529.545333 719.388186 
L 1530.235861 719.346648 
L 1532.334509 718.844799 
L 1533.030477 716.192289 
L 1533.7616 712.770899 
L 1534.4547 696.16156 
L 1539.291998 674.56001 
L 1539.977585 671.494662 
L 1540.66115 670.247669 
L 1541.351661 669.99081 
L 1542.035351 669.887389 
L 1542.722615 669.663591 
L 1544.094637 669.477941 
L 1546.200928 668.690411 
L 1547.616891 668.386928 
L 1548.319807 667.957982 
L 1549.041742 666.100632 
L 1549.764635 657.165684 
L 1550.457841 657.036831 
L 1551.168313 657.122451 
L 1551.86878 656.999532 
L 1552.570766 656.303555 
L 1554.700708 656.226413 
L 1555.401656 656.536678 
L 1556.105947 656.159443 
L 1556.821332 656.217936 
L 1557.524723 656.044154 
L 1558.221314 655.995834 
L 1558.932056 658.561876 
L 1561.068925 658.65682 
L 1561.78388 654.610662 
L 1562.4858 646.01565 
L 1564.620412 645.36545 
L 1567.422308 645.295937 
L 1568.119703 644.87886 
L 1568.822791 644.642346 
L 1569.521063 644.683885 
L 1570.221701 644.613524 
L 1570.928564 644.655062 
L 1571.616993 643.974345 
L 1572.318472 643.600501 
L 1573.03255 643.628476 
L 1576.523012 642.648514 
L 1577.21085 636.567832 
L 1577.904965 635.232677 
L 1578.630894 634.159466 
L 1579.475434 633.141356 
L 1580.890792 630.626177 
L 1583.031305 627.164944 
L 1584.481943 625.177046 
L 1585.914324 622.854298 
L 1587.328646 621.009664 
L 1588.019536 619.838118 
L 1588.79216 618.059605 
L 1589.509284 616.699866 
L 1590.267821 615.001887 
L 1591.743322 611.151551 
L 1593.175796 608.444788 
L 1593.89299 607.271546 
L 1594.594939 605.881289 
L 1595.343818 604.718219 
L 1596.056013 603.916278 
L 1597.502871 601.035732 
L 1598.212296 595.422992 
L 1598.899478 594.356562 
L 1602.485947 587.4146 
L 1603.192795 586.70845 
L 1604.62166 586.558404 
L 1606.055126 586.557557 
L 1608.189451 586.294764 
L 1608.911438 586.434638 
L 1609.638172 586.361734 
L 1610.350026 586.443962 
L 1612.562227 586.42616 
L 1614.691619 586.527039 
L 1615.424601 586.278657 
L 1616.124087 586.165911 
L 1616.847678 586.278657 
L 1618.973668 586.087921 
L 1619.699911 586.488892 
L 1620.456853 586.485501 
L 1621.154824 586.066728 
L 1621.878095 586.076053 
L 1623.292767 585.836996 
L 1624.02283 585.384315 
L 1624.719784 585.280893 
L 1625.408154 585.322432 
L 1626.812805 585.086766 
L 1628.240497 585.040141 
L 1628.924412 582.060413 
L 1631.028187 581.895955 
L 1632.412074 581.853569 
L 1635.859211 581.681483 
L 1636.542122 581.666224 
L 1637.241049 581.415299 
L 1638.731292 581.483964 
L 1639.423061 580.842242 
L 1640.134656 577.969326 
L 1640.851586 548.534013 
L 1641.575876 546.840273 
L 1642.275745 544.569236 
L 1643.046659 543.351913 
L 1643.780942 542.635592 
L 1644.468755 541.762442 
L 1645.849222 539.510055 
L 1646.557203 538.728459 
L 1647.248344 537.552674 
L 1647.934012 535.56308 
L 1648.62126 534.658565 
L 1649.328791 580.231885 
L 1650.064302 580.201367 
L 1650.74413 580.536216 
L 1652.106524 580.752384 
L 1652.43223 598.225547 
L 1652.806089 724.950911 
L 1653.508139 919.968438 
L 1654.261646 916.864094 
L 1655.077852 914.033564 
L 1655.815296 911.950721 
L 1656.501511 911.145389 
L 1657.191752 910.507905 
L 1657.93483 907.475617 
L 1658.630135 905.606399 
L 1659.333883 901.535657 
L 1660.155712 898.757685 
L 1660.953642 897.824348 
L 1661.680036 893.798535 
L 1662.417009 891.889474 
L 1664.480175 890.067728 
L 1665.182722 887.712768 
L 1666.552928 886.319119 
L 1667.26155 883.9116 
L 1667.957256 882.402662 
L 1669.363308 877.056952 
L 1670.068197 876.285529 
L 1670.767433 871.269582 
L 1672.153226 866.070527 
L 1672.850255 864.044481 
L 1673.578562 862.564365 
L 1675.680432 856.821076 
L 1676.369485 856.275145 
L 1677.060732 855.925886 
L 1677.764168 855.802119 
L 1678.46731 855.349437 
L 1679.171996 854.69839 
L 1679.924235 854.446618 
L 1680.619174 853.804048 
L 1681.340558 853.859149 
L 1682.731893 852.896142 
L 1683.418101 852.720664 
L 1684.794651 851.983149 
L 1686.915729 851.344818 
L 1687.611973 848.192154 
L 1688.29049 851.410092 
L 1689.645183 851.455021 
L 1690.127118 865.249936 
L 1690.330227 922.592972 
L 1691.724093 917.98393 
L 1693.222989 912.528017 
L 1693.912717 911.406486 
L 1694.601698 911.017383 
L 1695.365538 907.828268 
L 1696.055833 905.485175 
L 1697.463929 899.701196 
L 1698.179296 897.419986 
L 1699.064088 896.667213 
L 1699.938833 890.377145 
L 1700.690967 889.648108 
L 1701.384359 888.496907 
L 1702.072576 887.735656 
L 1702.763538 886.688724 
L 1703.450516 885.375609 
L 1704.137366 884.462617 
L 1704.823893 882.81211 
L 1705.517866 881.585462 
L 1706.213968 880.091783 
L 1706.903797 877.716477 
L 1707.601628 876.234666 
L 1709.012955 868.461939 
L 1710.410866 863.979207 
L 1712.509596 858.135887 
L 1713.194631 855.172264 
L 1713.880918 854.851827 
L 1714.585196 854.686522 
L 1715.291506 854.245709 
L 1716.667724 853.720123 
L 1717.358208 853.125873 
L 1718.084435 852.977522 
L 1720.251037 851.917875 
L 1720.970077 851.163406 
L 1721.677953 850.837882 
L 1722.376343 850.722593 
L 1723.103159 850.447084 
L 1723.791929 850.586958 
L 1725.915429 849.771453 
L 1727.333115 849.334878 
L 1728.029111 848.894065 
L 1728.715018 849.517138 
L 1730.850488 847.79627 
L 1731.55095 846.982461 
L 1732.243239 846.868867 
L 1732.927956 844.168037 
L 1733.607977 842.39885 
L 1734.287133 845.765985 
L 1734.964215 845.907554 
L 1735.644569 845.849062 
L 1736.315395 877.663071 
L 1736.333124 885.844397 
L 1737.018841 920.90347 
L 1738.387173 915.790883 
L 1739.074555 913.750426 
L 1739.777093 912.171975 
L 1740.466456 911.479389 
L 1741.215199 910.88853 
L 1741.89956 907.637531 
L 1742.598982 905.544516 
L 1743.310642 901.650947 
L 1744.087626 899.307854 
L 1744.91932 897.805698 
L 1745.660859 893.753606 
L 1746.40819 892.458293 
L 1747.138096 891.536823 
L 1747.847356 890.914598 
L 1748.53271 889.568422 
L 1749.241762 887.622062 
L 1749.935692 887.034593 
L 1750.622948 886.080063 
L 1751.323064 883.837001 
L 1752.044054 882.560338 
L 1752.755088 879.199136 
L 1753.466527 877.835157 
L 1754.177302 875.728578 
L 1754.87384 870.847418 
L 1756.276257 865.875552 
L 1756.989452 863.969882 
L 1757.689743 862.471116 
L 1758.377612 860.489152 
L 1759.061547 857.028767 
L 1759.77081 855.69022 
L 1760.458218 855.130726 
L 1761.162619 854.900147 
L 1762.571958 853.995632 
L 1763.270158 852.832563 
L 1763.979191 852.659628 
L 1764.676529 852.24679 
L 1765.393301 852.021297 
L 1766.106206 851.652539 
L 1766.807135 851.545727 
L 1767.510427 849.840966 
L 1768.218029 849.503574 
L 1768.936391 849.38998 
L 1769.637823 846.361083 
L 1770.349281 846.157631 
L 1771.079256 845.780397 
L 1771.800352 845.660021 
L 1772.518653 845.376035 
L 1773.92221 845.131045 
L 1774.6221 844.678363 
L 1775.361923 844.689384 
L 1777.502361 844.378271 
L 1778.200059 840.393149 
L 1780.315079 834.870266 
L 1781.708574 831.577729 
L 1783.097473 827.889308 
L 1783.806182 824.97994 
L 1784.513587 822.815716 
L 1785.915578 820.13947 
L 1786.625587 818.468618 
L 1787.322462 811.490203 
L 1788.034986 811.430015 
L 1788.73265 811.109578 
L 1789.440984 810.634008 
L 1790.870719 810.267794 
L 1791.580857 809.713387 
L 1792.286631 809.573513 
L 1792.997513 809.242903 
L 1795.130477 808.756313 
L 1797.968893 808.391794 
L 1798.683358 808.078139 
L 1799.383467 807.328756 
L 1800.770774 805.339162 
L 1801.486266 799.123693 
L 1802.173913 798.47095 
L 1803.579551 798.408219 
L 1804.289079 795.787923 
L 1804.977591 794.043319 
L 1805.694911 797.993685 
L 1807.738278 798.270889 
L 1808.499414 819.696961 
L 1809.183935 920.588967 
L 1810.586563 915.199176 
L 1811.332439 912.596682 
L 1812.705939 911.017383 
L 1813.400172 907.5748 
L 1814.103111 905.817481 
L 1814.842516 902.385918 
L 1815.600542 899.62914 
L 1816.364903 897.751444 
L 1817.126923 896.364577 
L 1817.916895 892.874522 
L 1818.684588 891.030736 
L 1820.113074 889.106416 
L 1820.813552 886.734501 
L 1821.497587 886.208068 
L 1822.182088 885.417995 
L 1822.874508 883.118136 
L 1823.578027 882.016103 
L 1824.274542 880.508012 
L 1824.962734 877.512177 
L 1825.680596 876.024432 
L 1826.384093 872.70392 
L 1827.071824 868.53993 
L 1828.467827 864.422563 
L 1829.861551 860.733294 
L 1830.576695 857.844272 
L 1831.263732 856.403999 
L 1831.952501 856.071693 
L 1832.655787 855.572387 
L 1834.105121 855.231605 
L 1834.807902 854.763664 
L 1835.525613 853.896449 
L 1836.26972 851.852601 
L 1836.961575 847.603838 
L 1838.383039 846.847674 
L 1839.117527 845.772767 
L 1839.848488 843.539878 
L 1840.560024 843.219441 
L 1844.101372 842.659947 
L 1845.497633 842.805754 
L 1846.204773 838.137371 
L 1846.921994 837.484628 
L 1849.059895 831.560775 
L 1852.573082 820.631147 
L 1853.268926 810.907821 
L 1854.664845 810.238124 
L 1855.3672 810.348327 
L 1856.097889 810.253383 
L 1856.800978 809.924468 
L 1858.929493 809.904971 
L 1859.652451 806.266565 
L 1860.362537 799.275435 
L 1861.104054 798.999926 
L 1861.808267 798.943129 
L 1862.513748 798.68288 
L 1863.199781 798.639646 
L 1864.639173 798.359052 
L 1867.4911 797.975035 
L 1868.209858 797.534222 
L 1868.90781 798.517575 
L 1869.593621 793.776288 
L 1870.300234 790.251477 
L 1871.723317 789.865765 
L 1874.545997 789.221499 
L 1875.260622 788.842569 
L 1875.966284 788.694219 
L 1876.649749 787.641353 
L 1877.355675 787.622703 
L 1878.070786 788.594188 
L 1878.773752 787.454007 
L 1879.507478 777.971434 
L 1880.201433 773.807443 
L 1880.897935 771.505889 
L 1882.294119 765.799899 
L 1885.069764 756.012147 
L 1889.239369 740.970238 
L 1889.925299 738.299927 
L 1890.611898 731.143491 
L 1893.389464 730.519571 
L 1894.091667 730.499226 
L 1894.776118 730.795079 
L 1895.480006 730.132164 
L 1896.167791 729.772731 
L 1896.876735 729.66931 
L 1897.565529 729.364979 
L 1898.255425 729.23443 
L 1898.942179 728.945359 
L 1899.651085 728.279052 
L 1900.39335 727.93064 
L 1901.077452 727.748381 
L 1901.774392 727.399969 
L 1903.161967 723.928563 
L 1903.873224 721.67872 
L 1904.587207 714.477355 
L 1905.279865 713.993308 
L 1905.987649 714.812204 
L 1909.491407 714.857981 
L 1910.191757 714.579082 
L 1910.89623 714.423949 
L 1911.606502 714.14505 
L 1914.413856 713.664394 
L 1915.122327 713.45416 
L 1915.852071 713.441444 
L 1916.560304 704.643827 
L 1917.254574 704.478522 
L 1917.949356 704.036013 
L 1918.646984 703.824083 
L 1919.360149 703.266285 
L 1920.767346 702.738157 
L 1922.918367 702.435521 
L 1923.611532 702.171881 
L 1925.047806 702.070155 
L 1926.433467 701.80058 
L 1927.134796 701.258889 
L 1927.852822 701.348747 
L 1929.2562 701.22498 
L 1930.725857 700.866395 
L 1931.417893 700.969817 
L 1932.829579 700.637511 
L 1934.228125 700.837573 
L 1935.650469 700.770603 
L 1936.365767 698.30883 
L 1937.088093 693.402238 
L 1938.492851 690.411489 
L 1939.262161 688.018381 
L 1939.959326 686.890068 
L 1942.086693 682.456503 
L 1943.479029 679.899786 
L 1944.18459 678.302685 
L 1945.576042 674.668518 
L 1946.989466 671.421758 
L 1948.381869 668.269095 
L 1949.078298 667.039056 
L 1954.723672 654.085925 
L 1959.036596 642.925717 
L 1959.729268 640.628402 
L 1960.416129 637.396901 
L 1961.105616 635.629409 
L 1961.884067 633.064214 
L 1963.401682 622.088809 
L 1964.146442 621.230918 
L 1964.842243 618.629272 
L 1965.550275 614.677211 
L 1966.261716 633.779688 
L 1968.30548 634.142511 
L 1968.691608 652.234509 
L 1968.995236 757.841522 
L 1969.689811 920.248184 
L 1971.125603 915.189003 
L 1971.868903 912.46359 
L 1972.562683 911.437004 
L 1973.276835 910.856317 
L 1973.975236 907.32981 
L 1974.666237 905.413967 
L 1975.374055 901.990882 
L 1976.129206 899.200194 
L 1976.91611 897.015625 
L 1977.706407 895.751677 
L 1978.45039 891.86489 
L 1979.158773 890.348323 
L 1979.842952 889.197122 
L 1980.530115 888.41383 
L 1981.226434 887.235502 
L 1981.932645 885.325594 
L 1982.618284 884.477876 
L 1983.344283 882.398423 
L 1984.042069 881.24807 
L 1984.748067 879.459385 
L 1985.433406 876.87215 
L 1986.130366 875.513258 
L 1986.852362 872.302102 
L 1987.543662 868.08301 
L 1988.942534 863.753714 
L 1991.051598 858.080785 
L 1991.736128 854.626334 
L 1992.436218 854.132114 
L 1994.612639 853.44292 
L 1996.006668 852.56977 
L 1996.704952 850.970974 
L 1997.422014 845.442157 
L 1998.151669 842.765064 
L 1999.568974 842.332728 
L 2000.28746 830.316325 
L 2000.982351 823.855866 
L 2001.703485 809.754925 
L 2002.407756 808.368058 
L 2003.128369 808.017103 
L 2004.537299 807.561878 
L 2005.233142 806.523424 
L 2005.948465 806.180098 
L 2006.697852 805.64434 
L 2008.108383 805.245913 
L 2008.822144 804.074366 
L 2009.516695 797.044241 
L 2010.943893 796.663616 
L 2011.649129 796.772971 
L 2012.343213 796.538153 
L 2014.477651 796.300792 
L 2015.196322 796.227041 
L 2015.905313 796.351655 
L 2016.610055 794.52228 
L 2017.300595 783.465494 
L 2019.423892 782.905152 
L 2020.830025 782.941604 
L 2021.521037 783.054351 
L 2022.231991 782.995858 
L 2022.930803 783.162859 
L 2023.613116 778.395293 
L 2025.703195 768.974603 
L 2029.168932 750.815635 
L 2029.854164 745.670835 
L 2032.658078 745.161356 
L 2033.343252 745.277494 
L 2034.045999 730.225413 
L 2034.732621 729.467553 
L 2035.420931 729.268339 
L 2037.487137 729.615903 
L 2038.173104 729.407365 
L 2038.908464 714.727432 
L 2039.61301 708.210176 
L 2040.318174 709.814059 
L 2042.383137 709.385113 
L 2043.083152 709.328316 
L 2043.812738 706.768208 
L 2044.559614 703.18999 
L 2046.654357 689.255202 
L 2048.058286 679.21483 
L 2048.780271 675.033037 
L 2049.490443 672.512771 
L 2050.177642 670.823269 
L 2050.893994 668.688715 
L 2051.600939 662.284206 
L 2053.018068 662.023956 
L 2053.714248 661.559407 
L 2054.430576 660.932096 
L 2055.128913 660.866821 
L 2055.823393 660.353104 
L 2056.527882 658.312647 
L 2057.223648 658.204139 
L 2057.941104 657.850641 
L 2059.33946 657.525965 
L 2062.146944 657.396264 
L 2063.555788 657.046156 
L 2064.256009 656.839313 
L 2064.961868 656.458688 
L 2065.688356 656.328139 
L 2066.37451 652.298088 
L 2067.064117 649.839705 
L 2069.196667 649.29208 
L 2071.34076 648.858048 
L 2072.730063 648.489291 
L 2074.813879 648.213782 
L 2075.50478 648.255321 
L 2076.207879 648.114599 
L 2076.911082 647.789076 
L 2077.615271 640.390193 
L 2081.852508 625.705174 
L 2082.561725 622.612699 
L 2084.645588 615.395228 
L 2086.071766 610.790423 
L 2086.776304 608.385448 
L 2088.171901 602.427685 
L 2089.579296 597.516007 
L 2090.269015 584.696816 
L 2090.991666 584.892639 
L 2092.388449 584.656125 
L 2093.087495 584.188185 
L 2094.485725 584.14919 
L 2095.888468 584.140713 
L 2096.592227 583.723635 
L 2097.280639 583.699899 
L 2099.344451 583.192116 
L 2100.041298 583.369289 
L 2100.747593 581.994291 
L 2102.147193 576.498535 
L 2102.856442 561.331164 
L 2104.958983 560.713178 
L 2105.643291 560.664858 
L 2107.027591 560.425802 
L 2107.727696 560.550416 
L 2109.830366 560.284233 
L 2111.238565 559.931582 
L 2111.936686 559.87648 
L 2114.014418 559.301728 
L 2114.717128 558.342111 
L 2115.405504 555.219118 
L 2116.090266 536.935536 
L 2117.510046 536.448098 
L 2118.196377 536.289575 
L 2118.877917 536.269229 
L 2119.562864 536.048823 
L 2120.932286 535.86402 
L 2121.620895 535.559689 
L 2122.320376 535.543583 
L 2123.008424 535.247729 
L 2123.70594 535.201105 
L 2125.075283 534.609398 
L 2127.14083 534.249965 
L 2127.830793 534.194863 
L 2128.530241 534.001584 
L 2129.285083 532.087437 
L 2129.984491 522.948189 
L 2130.68006 509.000684 
L 2131.366304 508.680247 
L 2132.051999 508.48951 
L 2133.431883 508.27419 
L 2134.120005 507.886783 
L 2136.191595 507.610427 
L 2136.905185 507.423081 
L 2137.589479 508.882004 
L 2140.337584 508.833684 
L 2141.023194 508.561567 
L 2142.410655 508.336074 
L 2143.780151 507.93256 
L 2144.464264 507.738432 
L 2145.192838 499.759711 
L 2145.876221 481.439677 
L 2147.249056 480.891203 
L 2147.932349 480.795411 
L 2149.302739 480.377486 
L 2150.69108 479.87818 
L 2152.746451 479.121168 
L 2153.430247 478.955863 
L 2154.829518 477.763972 
L 2155.517997 476.197389 
L 2156.208094 475.982068 
L 2156.904216 475.930357 
L 2157.621965 472.991319 
L 2158.343335 466.105306 
L 2159.066385 464.875267 
L 2159.774887 462.098143 
L 2161.901225 460.92151 
L 2162.692795 460.811307 
L 2164.109813 460.265377 
L 2166.177881 460.05599 
L 2169.678715 459.020079 
L 2170.376869 459.061617 
L 2171.062442 458.764916 
L 2172.43954 458.599611 
L 2173.134211 458.358011 
L 2173.823027 458.247808 
L 2175.200393 457.695096 
L 2175.91374 451.894161 
L 2178.037707 451.149865 
L 2178.752901 450.545442 
L 2179.47153 450.128365 
L 2180.193571 449.539201 
L 2180.914572 449.280647 
L 2181.642716 448.745737 
L 2182.354672 446.829894 
L 2183.076307 445.429464 
L 2183.786784 445.217534 
L 2185.174749 444.264699 
L 2185.872209 443.601784 
L 2186.563496 443.140625 
L 2187.25672 442.876985 
L 2188.666867 441.777495 
L 2190.784547 440.966229 
L 2191.469094 434.325206 
L 2193.531322 433.595321 
L 2196.318966 432.856958 
L 2199.756882 431.79392 
L 2200.454466 431.732036 
L 2201.141329 431.375147 
L 2202.530481 431.008933 
L 2203.908656 430.830912 
L 2204.606628 430.703754 
L 2206.051629 429.274502 
L 2207.457877 428.709922 
L 2208.160973 428.596327 
L 2208.881936 428.596327 
L 2210.323918 428.437804 
L 2213.191846 428.531901 
L 2213.894017 428.124149 
L 2214.592076 427.551091 
L 2215.31165 423.080226 
L 2217.476079 422.977653 
L 2218.18919 411.625013 
L 2221.811985 411.157073 
L 2222.519134 397.682595 
L 2223.932649 397.465579 
L 2228.952941 397.125644 
L 2229.69153 397.167183 
L 2230.401476 397.708027 
L 2231.817719 397.830946 
L 2234.665464 397.174812 
L 2235.420756 389.831879 
L 2236.149724 371.410119 
L 2236.884443 371.293134 
L 2237.570996 366.957056 
L 2238.257826 366.853635 
L 2238.942487 366.924843 
L 2240.312271 366.862112 
L 2242.417355 366.796837 
L 2243.128118 366.539979 
L 2243.825221 366.443339 
L 2244.51654 363.299153 
L 2245.285163 345.452994 
L 2246.686619 345.18681 
L 2247.38906 342.244381 
L 2248.110606 342.075685 
L 2248.846661 342.188432 
L 2250.232007 341.946832 
L 2250.927049 341.971416 
L 2251.668617 341.884101 
L 2253.10385 341.96972 
L 2262.385344 341.695907 
L 2264.558889 341.696755 
L 2266.017447 341.697603 
L 2266.746547 341.739141 
L 2269.599455 341.466176 
L 2271.017435 341.420399 
L 2272.449761 341.108439 
L 2273.140874 340.435351 
L 2274.611081 340.261569 
L 2276.004328 340.10135 
L 2278.135737 340.09372 
L 2279.540161 340.199685 
L 2280.275814 339.982669 
L 2282.426321 339.683425 
L 2283.175937 339.58848 
L 2283.936393 338.623777 
L 2284.69148 338.706854 
L 2285.410062 338.610214 
L 2286.807629 338.573762 
L 2288.255038 338.561894 
L 2289.666354 338.338944 
L 2294.619889 338.187203 
L 2295.342835 338.082086 
L 2296.02944 337.170789 
L 2296.772409 335.683891 
L 2300.392476 326.819304 
L 2301.110069 324.279541 
L 2301.860396 322.278079 
L 2302.706977 319.178822 
L 2306.340605 309.202876 
L 2308.498758 302.13969 
L 2309.186477 300.916433 
L 2311.338814 300.80962 
L 2312.058888 300.807077 
L 2312.743814 300.673138 
L 2315.548586 300.595996 
L 2323.970615 299.997507 
L 2324.671839 300.055151 
L 2325.393339 299.874588 
L 2326.112147 299.999202 
L 2327.517682 299.751668 
L 2328.895547 299.646551 
L 2330.291336 299.721998 
L 2331.018465 299.236256 
L 2335.219601 299.007372 
L 2335.922089 299.090448 
L 2337.352748 298.907341 
L 2338.056051 298.960748 
L 2338.759605 298.743732 
L 2340.167231 298.624203 
L 2341.572366 298.449574 
L 2343.655686 298.574188 
L 2345.03551 298.412274 
L 2346.420496 298.363954 
L 2348.550222 298.134222 
L 2349.233066 297.565404 
L 2349.93185 297.491652 
L 2350.654753 296.82026 
L 2351.341502 296.828737 
L 2352.725996 296.68632 
L 2355.530755 296.769396 
L 2356.921051 296.969458 
L 2357.603958 296.769396 
L 2360.347184 296.793133 
L 2361.050579 297.375515 
L 2361.753557 297.483175 
L 2363.134939 297.427226 
L 2363.831581 297.445028 
L 2364.516777 297.324652 
L 2365.210431 297.516236 
L 2365.898088 297.549297 
L 2366.599867 297.283961 
L 2368.024593 295.370662 
L 2368.751607 295.262154 
L 2369.452218 295.286738 
L 2370.140962 295.450347 
L 2372.928468 295.338448 
L 2375.714009 295.428307 
L 2376.416821 295.379987 
L 2377.118594 295.119737 
L 2377.823943 295.119737 
L 2378.526663 295.004448 
L 2379.222767 294.136384 
L 2379.90187 293.916825 
L 2380.585447 293.882917 
L 2382.014494 293.987186 
L 2384.06252 293.908348 
L 2388.899798 293.913435 
L 2389.582537 293.82612 
L 2390.956234 294.005836 
L 2392.326035 293.940562 
L 2393.074595 293.940562 
L 2393.759127 293.753216 
L 2394.441172 293.693876 
L 2397.927679 293.913435 
L 2398.61748 295.62752 
L 2400.720626 295.482561 
L 2402.120712 295.348621 
L 2403.499367 294.176227 
L 2404.906265 294.300842 
L 2409.800413 294.22709 
L 2411.885005 294.198268 
L 2413.271718 294.277953 
L 2413.968644 294.160968 
L 2419.547425 294.088912 
L 2420.928172 294.017704 
L 2421.624782 294.142318 
L 2424.410946 294.077044 
L 2426.498746 294.243197 
L 2427.196923 294.128755 
L 2431.443611 294.244045 
L 2432.146408 294.120278 
L 2432.848214 294.185552 
L 2434.255114 294.144862 
L 2434.962608 294.227938 
L 2436.389349 293.90411 
L 2437.110738 293.679464 
L 2438.543493 291.012544 
L 2439.27546 287.725093 
L 2439.984995 279.855727 
L 2440.682483 256.725741 
L 2442.076452 231.7774 
L 2442.773899 230.219295 
L 2443.480284 228.361945 
L 2444.273456 227.066632 
L 2445.002702 225.207586 
L 2445.712355 224.241187 
L 2447.229207 221.542901 
L 2447.963819 220.712137 
L 2448.677512 219.61519 
L 2449.431175 218.223237 
L 2451.525548 216.38708 
L 2452.90481 215.463915 
L 2454.276494 213.618433 
L 2458.397077 211.116817 
L 2459.084024 211.862809 
L 2459.801411 211.518636 
L 2460.486237 210.077515 
L 2461.864302 202.014869 
L 2464.617015 186.738143 
L 2467.368574 173.141594 
L 2468.058302 171.665717 
L 2469.436111 170.538252 
L 2472.175557 169.826169 
L 2472.860815 170.88073 
L 2473.549594 170.778156 
L 2474.928955 170.181363 
L 2476.297275 169.712575 
L 2477.704701 169.293802 
L 2479.075571 169.011512 
L 2480.446842 168.415566 
L 2482.504901 167.930671 
L 2484.564532 167.4 
L 2485.268672 288.994127 
L 2485.959085 288.52873 
L 2486.63793 286.257693 
L 2487.31636 286.305165 
L 2487.998133 286.6451 
L 2488.682474 287.414828 
L 2489.360589 287.969236 
L 2490.04249 288.232028 
L 2490.545455 310.299824 
L 2490.545455 310.299824 
" style="fill:none;stroke:#008000;stroke-linecap:square;stroke-width:1.5;"/>
   </g>
   <g id="line2d_17">
    <path clip-path="url(#p170c5a53bd)" d="M 2490.545455 961.2 
L 2490.545455 129.6 
" style="fill:none;stroke:#ffa500;stroke-dasharray:5.55,2.4;stroke-dashoffset:0;stroke-width:1.5;"/>
   </g>
   <g id="line2d_18">
    <path clip-path="url(#p170c5a53bd)" d="M 496.988458 961.2 
L 496.988458 129.6 
" style="fill:none;stroke:#ffa500;stroke-dasharray:5.55,2.4;stroke-dashoffset:0;stroke-width:1.5;"/>
   </g>
   <g id="line2d_19">
    <path clip-path="url(#p170c5a53bd)" d="M 550.870317 961.2 
L 550.870317 129.6 
" style="fill:none;stroke:#ffa500;stroke-dasharray:5.55,2.4;stroke-dashoffset:0;stroke-width:1.5;"/>
   </g>
   <g id="line2d_20">
    <path clip-path="url(#p170c5a53bd)" d="M 588.441909 961.2 
L 588.441909 129.6 
" style="fill:none;stroke:#ffa500;stroke-dasharray:5.55,2.4;stroke-dashoffset:0;stroke-width:1.5;"/>
   </g>
   <g id="line2d_21">
    <path clip-path="url(#p170c5a53bd)" d="M 625.835533 961.2 
L 625.835533 129.6 
" style="fill:none;stroke:#ffa500;stroke-dasharray:5.55,2.4;stroke-dashoffset:0;stroke-width:1.5;"/>
   </g>
   <g id="line2d_22">
    <path clip-path="url(#p170c5a53bd)" d="M 663.823059 961.2 
L 663.823059 129.6 
" style="fill:none;stroke:#ffa500;stroke-dasharray:5.55,2.4;stroke-dashoffset:0;stroke-width:1.5;"/>
   </g>
   <g id="line2d_23">
    <path clip-path="url(#p170c5a53bd)" d="M 700.36398 961.2 
L 700.36398 129.6 
" style="fill:none;stroke:#ffa500;stroke-dasharray:5.55,2.4;stroke-dashoffset:0;stroke-width:1.5;"/>
   </g>
   <g id="line2d_24">
    <path clip-path="url(#p170c5a53bd)" d="M 738.890107 961.2 
L 738.890107 129.6 
" style="fill:none;stroke:#ffa500;stroke-dasharray:5.55,2.4;stroke-dashoffset:0;stroke-width:1.5;"/>
   </g>
   <g id="line2d_25">
    <path clip-path="url(#p170c5a53bd)" d="M 780.064705 961.2 
L 780.064705 129.6 
" style="fill:none;stroke:#ffa500;stroke-dasharray:5.55,2.4;stroke-dashoffset:0;stroke-width:1.5;"/>
   </g>
   <g id="line2d_26">
    <path clip-path="url(#p170c5a53bd)" d="M 826.865173 961.2 
L 826.865173 129.6 
" style="fill:none;stroke:#ffa500;stroke-dasharray:5.55,2.4;stroke-dashoffset:0;stroke-width:1.5;"/>
   </g>
   <g id="line2d_27">
    <path clip-path="url(#p170c5a53bd)" d="M 881.467193 961.2 
L 881.467193 129.6 
" style="fill:none;stroke:#ffa500;stroke-dasharray:5.55,2.4;stroke-dashoffset:0;stroke-width:1.5;"/>
   </g>
   <g id="line2d_28">
    <path clip-path="url(#p170c5a53bd)" d="M 918.565013 961.2 
L 918.565013 129.6 
" style="fill:none;stroke:#ffa500;stroke-dasharray:5.55,2.4;stroke-dashoffset:0;stroke-width:1.5;"/>
   </g>
   <g id="line2d_29">
    <path clip-path="url(#p170c5a53bd)" d="M 959.246939 961.2 
L 959.246939 129.6 
" style="fill:none;stroke:#ffa500;stroke-dasharray:5.55,2.4;stroke-dashoffset:0;stroke-width:1.5;"/>
   </g>
   <g id="line2d_30">
    <path clip-path="url(#p170c5a53bd)" d="M 1007.785151 961.2 
L 1007.785151 129.6 
" style="fill:none;stroke:#ffa500;stroke-dasharray:5.55,2.4;stroke-dashoffset:0;stroke-width:1.5;"/>
   </g>
   <g id="line2d_31">
    <path clip-path="url(#p170c5a53bd)" d="M 1073.386638 961.2 
L 1073.386638 129.6 
" style="fill:none;stroke:#ffa500;stroke-dasharray:5.55,2.4;stroke-dashoffset:0;stroke-width:1.5;"/>
   </g>
   <g id="line2d_32">
    <path clip-path="url(#p170c5a53bd)" d="M 1181.731041 961.2 
L 1181.731041 129.6 
" style="fill:none;stroke:#ffa500;stroke-dasharray:5.55,2.4;stroke-dashoffset:0;stroke-width:1.5;"/>
   </g>
   <g id="line2d_33">
    <path clip-path="url(#p170c5a53bd)" d="M 1219.560579 961.2 
L 1219.560579 129.6 
" style="fill:none;stroke:#ffa500;stroke-dasharray:5.55,2.4;stroke-dashoffset:0;stroke-width:1.5;"/>
   </g>
   <g id="line2d_34">
    <path clip-path="url(#p170c5a53bd)" d="M 1261.916207 961.2 
L 1261.916207 129.6 
" style="fill:none;stroke:#ffa500;stroke-dasharray:5.55,2.4;stroke-dashoffset:0;stroke-width:1.5;"/>
   </g>
   <g id="line2d_35">
    <path clip-path="url(#p170c5a53bd)" d="M 1320.276729 961.2 
L 1320.276729 129.6 
" style="fill:none;stroke:#ffa500;stroke-dasharray:5.55,2.4;stroke-dashoffset:0;stroke-width:1.5;"/>
   </g>
   <g id="line2d_36">
    <path clip-path="url(#p170c5a53bd)" d="M 1422.778874 961.2 
L 1422.778874 129.6 
" style="fill:none;stroke:#ffa500;stroke-dasharray:5.55,2.4;stroke-dashoffset:0;stroke-width:1.5;"/>
   </g>
   <g id="line2d_37">
    <path clip-path="url(#p170c5a53bd)" d="M 1652.43223 961.2 
L 1652.43223 129.6 
" style="fill:none;stroke:#ffa500;stroke-dasharray:5.55,2.4;stroke-dashoffset:0;stroke-width:1.5;"/>
   </g>
   <g id="line2d_38">
    <path clip-path="url(#p170c5a53bd)" d="M 1690.127118 961.2 
L 1690.127118 129.6 
" style="fill:none;stroke:#ffa500;stroke-dasharray:5.55,2.4;stroke-dashoffset:0;stroke-width:1.5;"/>
   </g>
   <g id="line2d_39">
    <path clip-path="url(#p170c5a53bd)" d="M 1736.315395 961.2 
L 1736.315395 129.6 
" style="fill:none;stroke:#ffa500;stroke-dasharray:5.55,2.4;stroke-dashoffset:0;stroke-width:1.5;"/>
   </g>
   <g id="line2d_40">
    <path clip-path="url(#p170c5a53bd)" d="M 1808.236106 961.2 
L 1808.236106 129.6 
" style="fill:none;stroke:#ffa500;stroke-dasharray:5.55,2.4;stroke-dashoffset:0;stroke-width:1.5;"/>
   </g>
   <g id="line2d_41">
    <path clip-path="url(#p170c5a53bd)" d="M 1968.691608 961.2 
L 1968.691608 129.6 
" style="fill:none;stroke:#ffa500;stroke-dasharray:5.55,2.4;stroke-dashoffset:0;stroke-width:1.5;"/>
   </g>
   <g id="patch_3">
    <path d="M 360 961.2 
L 360 129.6 
" style="fill:none;stroke:#000000;stroke-linecap:square;stroke-linejoin:miter;stroke-width:0.8;"/>
   </g>
   <g id="patch_4">
    <path d="M 2592 961.2 
L 2592 129.6 
" style="fill:none;stroke:#000000;stroke-linecap:square;stroke-linejoin:miter;stroke-width:0.8;"/>
   </g>
   <g id="patch_5">
    <path d="M 360 961.2 
L 2592 961.2 
" style="fill:none;stroke:#000000;stroke-linecap:square;stroke-linejoin:miter;stroke-width:0.8;"/>
   </g>
   <g id="patch_6">
    <path d="M 360 129.6 
L 2592 129.6 
" style="fill:none;stroke:#000000;stroke-linecap:square;stroke-linejoin:miter;stroke-width:0.8;"/>
   </g>
   <g id="text_18">
    <!-- Memory Consumption -->
    <g transform="translate(1409.953125 123.6)scale(0.12 -0.12)">
     <defs>
      <path d="M 64.40625 67.28125 
L 64.40625 56.890625 
Q 59.421875 61.53125 53.78125 63.8125 
Q 48.140625 66.109375 41.796875 66.109375 
Q 29.296875 66.109375 22.65625 58.46875 
Q 16.015625 50.828125 16.015625 36.375 
Q 16.015625 21.96875 22.65625 14.328125 
Q 29.296875 6.6875 41.796875 6.6875 
Q 48.140625 6.6875 53.78125 8.984375 
Q 59.421875 11.28125 64.40625 15.921875 
L 64.40625 5.609375 
Q 59.234375 2.09375 53.4375 0.328125 
Q 47.65625 -1.421875 41.21875 -1.421875 
Q 24.65625 -1.421875 15.125 8.703125 
Q 5.609375 18.84375 5.609375 36.375 
Q 5.609375 53.953125 15.125 64.078125 
Q 24.65625 74.21875 41.21875 74.21875 
Q 47.75 74.21875 53.53125 72.484375 
Q 59.328125 70.75 64.40625 67.28125 
z
" id="DejaVuSans-67"/>
      <path d="M 8.5 21.578125 
L 8.5 54.6875 
L 17.484375 54.6875 
L 17.484375 21.921875 
Q 17.484375 14.15625 20.5 10.265625 
Q 23.53125 6.390625 29.59375 6.390625 
Q 36.859375 6.390625 41.078125 11.03125 
Q 45.3125 15.671875 45.3125 23.6875 
L 45.3125 54.6875 
L 54.296875 54.6875 
L 54.296875 0 
L 45.3125 0 
L 45.3125 8.40625 
Q 42.046875 3.421875 37.71875 1 
Q 33.40625 -1.421875 27.6875 -1.421875 
Q 18.265625 -1.421875 13.375 4.4375 
Q 8.5 10.296875 8.5 21.578125 
z
M 31.109375 56 
z
" id="DejaVuSans-117"/>
      <path d="M 18.109375 8.203125 
L 18.109375 -20.796875 
L 9.078125 -20.796875 
L 9.078125 54.6875 
L 18.109375 54.6875 
L 18.109375 46.390625 
Q 20.953125 51.265625 25.265625 53.625 
Q 29.59375 56 35.59375 56 
Q 45.5625 56 51.78125 48.09375 
Q 58.015625 40.1875 58.015625 27.296875 
Q 58.015625 14.40625 51.78125 6.484375 
Q 45.5625 -1.421875 35.59375 -1.421875 
Q 29.59375 -1.421875 25.265625 0.953125 
Q 20.953125 3.328125 18.109375 8.203125 
z
M 48.6875 27.296875 
Q 48.6875 37.203125 44.609375 42.84375 
Q 40.53125 48.484375 33.40625 48.484375 
Q 26.265625 48.484375 22.1875 42.84375 
Q 18.109375 37.203125 18.109375 27.296875 
Q 18.109375 17.390625 22.1875 11.75 
Q 26.265625 6.109375 33.40625 6.109375 
Q 40.53125 6.109375 44.609375 11.75 
Q 48.6875 17.390625 48.6875 27.296875 
z
" id="DejaVuSans-112"/>
     </defs>
     <use xlink:href="#DejaVuSans-77"/>
     <use x="86.279297" xlink:href="#DejaVuSans-101"/>
     <use x="147.802734" xlink:href="#DejaVuSans-109"/>
     <use x="245.214844" xlink:href="#DejaVuSans-111"/>
     <use x="306.396484" xlink:href="#DejaVuSans-114"/>
     <use x="347.509766" xlink:href="#DejaVuSans-121"/>
     <use x="406.689453" xlink:href="#DejaVuSans-32"/>
     <use x="438.476562" xlink:href="#DejaVuSans-67"/>
     <use x="508.300781" xlink:href="#DejaVuSans-111"/>
     <use x="569.482422" xlink:href="#DejaVuSans-110"/>
     <use x="632.861328" xlink:href="#DejaVuSans-115"/>
     <use x="684.960938" xlink:href="#DejaVuSans-117"/>
     <use x="748.339844" xlink:href="#DejaVuSans-109"/>
     <use x="845.751953" xlink:href="#DejaVuSans-112"/>
     <use x="909.228516" xlink:href="#DejaVuSans-116"/>
     <use x="948.4375" xlink:href="#DejaVuSans-105"/>
     <use x="976.220703" xlink:href="#DejaVuSans-111"/>
     <use x="1037.402344" xlink:href="#DejaVuSans-110"/>
    </g>
   </g>
   <g id="legend_1">
    <g id="patch_7">
     <path d="M 367 166.95625 
L 470.74375 166.95625 
Q 472.74375 166.95625 472.74375 164.95625 
L 472.74375 136.6 
Q 472.74375 134.6 470.74375 134.6 
L 367 134.6 
Q 365 134.6 365 136.6 
L 365 164.95625 
Q 365 166.95625 367 166.95625 
z
" style="fill:#ffffff;opacity:0.8;stroke:#cccccc;stroke-linejoin:miter;"/>
    </g>
    <g id="line2d_42">
     <path d="M 369 142.698438 
L 389 142.698438 
" style="fill:none;stroke:#008000;stroke-linecap:square;stroke-width:1.5;"/>
    </g>
    <g id="line2d_43"/>
    <g id="text_19">
     <!-- Memory -->
     <g transform="translate(397 146.198438)scale(0.1 -0.1)">
      <use xlink:href="#DejaVuSans-77"/>
      <use x="86.279297" xlink:href="#DejaVuSans-101"/>
      <use x="147.802734" xlink:href="#DejaVuSans-109"/>
      <use x="245.214844" xlink:href="#DejaVuSans-111"/>
      <use x="306.396484" xlink:href="#DejaVuSans-114"/>
      <use x="347.509766" xlink:href="#DejaVuSans-121"/>
     </g>
    </g>
    <g id="line2d_44">
     <path d="M 369 157.376563 
L 389 157.376563 
" style="fill:none;stroke:#ffa500;stroke-dasharray:5.55,2.4;stroke-dashoffset:0;stroke-width:1.5;"/>
    </g>
    <g id="line2d_45"/>
    <g id="text_20">
     <!-- Run Seperator -->
     <g transform="translate(397 160.876563)scale(0.1 -0.1)">
      <defs>
       <path d="M 44.390625 34.1875 
Q 47.5625 33.109375 50.5625 29.59375 
Q 53.5625 26.078125 56.59375 19.921875 
L 66.609375 0 
L 56 0 
L 46.6875 18.703125 
Q 43.0625 26.03125 39.671875 28.421875 
Q 36.28125 30.8125 30.421875 30.8125 
L 19.671875 30.8125 
L 19.671875 0 
L 9.8125 0 
L 9.8125 72.90625 
L 32.078125 72.90625 
Q 44.578125 72.90625 50.734375 67.671875 
Q 56.890625 62.453125 56.890625 51.90625 
Q 56.890625 45.015625 53.6875 40.46875 
Q 50.484375 35.9375 44.390625 34.1875 
z
M 19.671875 64.796875 
L 19.671875 38.921875 
L 32.078125 38.921875 
Q 39.203125 38.921875 42.84375 42.21875 
Q 46.484375 45.515625 46.484375 51.90625 
Q 46.484375 58.296875 42.84375 61.546875 
Q 39.203125 64.796875 32.078125 64.796875 
z
" id="DejaVuSans-82"/>
      </defs>
      <use xlink:href="#DejaVuSans-82"/>
      <use x="64.982422" xlink:href="#DejaVuSans-117"/>
      <use x="128.361328" xlink:href="#DejaVuSans-110"/>
      <use x="191.740234" xlink:href="#DejaVuSans-32"/>
      <use x="223.527344" xlink:href="#DejaVuSans-83"/>
      <use x="287.003906" xlink:href="#DejaVuSans-101"/>
      <use x="348.527344" xlink:href="#DejaVuSans-112"/>
      <use x="412.003906" xlink:href="#DejaVuSans-101"/>
      <use x="473.527344" xlink:href="#DejaVuSans-114"/>
      <use x="514.640625" xlink:href="#DejaVuSans-97"/>
      <use x="575.919922" xlink:href="#DejaVuSans-116"/>
      <use x="615.128906" xlink:href="#DejaVuSans-111"/>
      <use x="676.310547" xlink:href="#DejaVuSans-114"/>
     </g>
    </g>
   </g>
  </g>
 </g>
 <defs>
  <clipPath id="p170c5a53bd">
   <rect height="831.6" width="2232" x="360" y="129.6"/>
  </clipPath>
 </defs>
</svg>
